<svg xmlns="http://www.w3.org/2000/svg" viewBox="0 0 730 507"><defs><style>.a{fill:#fefefd;}.b{fill:#dbab2f;}.c{fill:#010101;}.d{fill:#e8ce75;}</style></defs><path class="a" d="M436,853V346h730V853ZM548.14,417.83c-2.12.32-3.81-.8-5.59-1.64-2.66-1.26-5.44-2-7.92.21s-1.81,4.74-.83,7.35c.07.19-.25.53-.39.8-7-2.65-8.55-1.71-10.1,6.21-7.41.54-8.07,1-8.61,6.54-2.46,1-5.32.31-7.83,2,.15,1.57-.75,3.64,2.13,3.86-1.2,4.87,1.09,8.71,4.16,12.58-5.3,1.93-10,3.55-15.53,1.57-4.51-1.61-8.21,1.79-8.07,6.64,0,1,.58,1.94-.06,3.05-1.78,1.25-3.8,2.44-5.12,4.71-2.45-.55-5-1-6.61,1.65s-.25,4.74.78,7c.47,1,1.92,2,.88,3.5-3.83-1.2-7.22-4.79-11.92-1.85-3.11,7.67,4.89,9.78,7.67,14.76-3,.89-6,1.78-5.95,6l1.57,4.1h-5.71c-2.19,0-4,.71-4.81,2.85A4.79,4.79,0,0,0,462,515.5c1.94,1.48,4,2.85,5.95,4.25-3.39,5.18-4.78,10.3-1.14,15.78-6.07,1.53-10.67-.53-13.74-5.12-2.52-3.77-6.1-4.28-10-4.85,3.61,6.25,9.42,10,15.24,13.75.83,1.48.1,3.36,1.5,5.18,1,1.84,3.73,2.49,5.84,4.15-2.24,1.07-4,2-5.82,2.77-2.05.86-4.29.44-6.42.77a25.66,25.66,0,0,0-3.89.84c-4.85,1.52-5.94,4.87-3.1,9.22.8,1.25,2.1,2.16,2.42,3.43a30.86,30.86,0,0,1,0,3.75c-.47,3.55.88,6.09,3.88,8,3.83,2.41,5.7,6.81,9.34,9.45.25.18.1.92.16,1.86A73.52,73.52,0,0,1,451,590c-3.81.17-7.68.35-10.49,3.33-.55,4.58.09,5.69,4,7.45,2.45,1.1,5.36,1.17,7.8,3.2-4.19,2.88-4.15,6.26-1.32,9.87-5,2.33-11.91.27-13.8,6.94.68,3.39,2.81,4.83,5.22,6.18,2.2,1.23,6,.86,5.76,5.09-2.89,2.18-7.11,2.35-9,6-.44,2-.59,4.12,1,5.58,2.44,2.19,3.76,5.11,5.27,7.82,1.8,3.2,3.86,5.69,7.4,6.93,1.69.59,3.21,1.62,3.21,3.9-4.11,1.45-8.36,1.74-12.07,3.66-4.06,2.11-4.24,6.06-.54,8.71,1.45,1,3.54.94,4.77,2.68-2.08,3.23-.92,6.81-1.22,10.36-1.51,2.22-4.15,4.28-3.19,7.4,1.81,5.88,2.3,12.35,7.15,17.13L449,713.92c-4.74,3.93-4.26,8.27,1.43,10.64,3.87,1.6,7.28,4.78,12.57,3.76-4.59,4.07-2.87,7.64-.68,11.88s6.51,6,9.24,9.69c-3.93,2.93-6.12,7.61-10.22,10.59-2.93,2.12-3.47,5.1-1.84,8.17,3,2.89,6.78,2,10.21,2.66a9.75,9.75,0,0,1,1.22,1.53c2.22,4.34,5.41,6,10.27,4.36,1.88-.63,4.11-1.19,6.13.36a80.14,80.14,0,0,0-4.2,7.46,4.87,4.87,0,0,0,.76,5.61c1.61,1.67,3.54,1.57,5.56,1.07,1.2-.3,2.14-1.63,3.34-1.11,3,4.24,2,8.84,2.18,13.27.23,5.09,1.7,6.31,6.79,5.85,4-2.49,4.67-7.45,7.64-10.71,1.37,1.06,2.06,2.55,4.21,3.18,7.91,1,6.39-7.29,9.77-11.51,4.7,4.36,1,13,8.3,15.34-.64,3.93.17,9.37,1.5,10.77,3.95-4.12,1.88-10.73,5.71-15,1.88,1.47,3.05,2.72,3.26,4.77a30.12,30.12,0,0,0,1.26,5.84c.75,2.45,1.87,4.79,4.82,5.13,2.65.32,4.33-1.29,5.63-3.37.43-.68.77-1.43,1.82-1.59,1.08,2.41,2.83,4.29,5.67,4,4-.41,4.43-4.34,6.11-7.23,2.93,7.85,5.48,8.46,11.47,3.21,1.77-1.54,3.8-2.77,5.92-4.31a56.23,56.23,0,0,0,1.35,5.78c1,2.81,3,4.69,6.1,3.84,4.79-1.32,9.68-2.74,11.4-8.4a42,42,0,0,1,1.89-4.32,11.12,11.12,0,0,0,8.24,0c.23,4.13.19,7.81.71,11.41s-.24,7.78,2.64,11a5.31,5.31,0,0,0,5.73-.18c3-3.45,2.93-8.25,4.88-12.43,1.86,1,3.06,2.92,5.66,2.87,5.89-1.49,4.78-8.19,7.7-12,1.46.33,2.47,1.08,2.65,2.28.77,5.07,4.43,8.41,7.15,12.31,3.78,5.4,7.66,5.15,11.13-.65.92-1.54,1.38-3.43,3.16-4.42l5.48-.35c3.47-1.63,4-5.29,6.1-7.12,2.46-.38,3.2,1.14,4.15,2.54,4,5.86,8,11.67,12,17.47,2.54,3.64,6,4.5,8.84,1.66,2.65-2.6,6.24-4.29,7.72-8.32,4.25,10.66,4.25,10.66,14.68,8.12,3.52-2.5,3.93-6.69,5.22-10.4.81-2.33,1.57-4.5,4.8-3.81,1.29,1.19,2.83,2.18,3.7,3.74-.71,2.7-1.71,5.12-4.38,7,2.71,3.32-3,6.49.32,10.32,4.32-5.26,6.07-11.44,8.45-17.31,2.84-2.15,4.9-5.56,9.41-5.58,1.74,2,3.57,4.57,6.9,4.5,5.95-1.73,4.72-8.32,8-11.91,1.27,1,1.11,2.21,1.29,3.32,1,6.57,2,13.15,3.2,19.68.43,2.29,1.5,4.61,4.31,4.9a5.32,5.32,0,0,0,5.63-3.33,17.33,17.33,0,0,1,7-8c5.83,5.46,9.48,4.5,11.6-3.07.72-2.56,1.2-5.18,1.93-7.73.27-.94,0-2.54,1.93-2.27.13.48.31.94.39,1.42,1,6.06,1.87,12.17,3.18,18.17,1.18,5.36,3.92,6.63,8.71,4.59,2.13-.91,4.23-1.87,6.34-2.8,1.48-.49,2,2,3.48,1.42,0-2.41-2.16-3.59-2.4-6.25,1.12-2.31.15-5.69,1.84-8.58a6.58,6.58,0,0,1,3.64,3.95c.61,1.37,1.16,2.76,1.83,4.1,1.24,2.47,2.78,4.79,6,4.38,2.9-.37,4-2.65,4.57-5.26.63-3.09,1.21-6.19,1.88-9.27.39-1.78.16-3.94,2.58-4.89.89,3.45,1.59,6.71,2.59,9.87.89,2.82,1.66,6.06,5.29,6.57s4.41-2.87,5.92-5.33c.89,2.78,1.67,5.26,2.46,7.73a4.29,4.29,0,0,0,4.43,3.33,4.85,4.85,0,0,0,4.48-3.46c.63-1.76,1.05-3.59,1.64-5.68,1.66,2.15,2.87,4.27,6.51,4.29,7.58-4.7,3.11-14,6.33-20.95,2.47.38,4.9.54,7.22-.68,1.86,3.61,2.43,7.27,3.21,10.77,1.26,5.69,5.59,8.45,9.79,11.27,2.79,1.88,5.58.71,7-2.37a35.46,35.46,0,0,0,1.23-4.3,5.84,5.84,0,0,1,.86-1.24c1,1.38,1.64,2.77,3,3.48,8.68,1.91,8.68,1.91,16.53-.2,3.56-2.51,2.59-7,4.35-10.23,1.64.6,3,1.69,4.76,1.66s3.09-1.92,5.12-1.86c.47.87,1,1.73,1.4,2.61,1.47,2.93,3.07,5.68,7,5.15,5.65-.75,8.86-3.12,9.66-7.71s1.16-9.23,1.66-13.46c2.92-5.21,8.14-4.31,13-6.12,2.23,8.5,6.51,15.08,15.33,17.35,5.31-.49,5.1-5.43,7-9,3.56,1.5,6.84.43,10.16-1,3.85,3.12,7.85,3,11.95,0,1.79,4,5.81,4.78,8.29,7.51s5,6.16,9.8,4.36c4.28-2.92,2.41-8.28,4.5-12.32,3.16-2.22,6.54-4.44,7.91-8.58,5-.23,9.65-.83,10.07-7.18,0-.24.39-.54.66-.68,4.09-2.12,4-5.69,3.26-9.32a6.68,6.68,0,0,1,2.42-3.26c7.25-1.29,8.22-2.16,8.35-7.43-2.63-3.77-2.63-3.77-2.44-7.55,5-1.68,5-1.73,8.45-7.32,1.62-.23,3.2-1.39,5.35-1l5.6,3.82v3.81c2.17.29,4.13,1,4.17-2,7.19-.53,12.2-4.37,15.84-10.57.76-2.79-.33-5.35-1.78-7.82-1.08-1.86-2.13-3.74-3.27-5.56-1-1.62-.51-2.76,1.07-3.8,2.84,1.57,5.67,3.42,9.22,2.73.18.92-.34,2,.73,2.81,1.16.28,2.46.86,3.37-.68,2.35.84,4.7,1.79,7.25.78,7.2-6.22,8.24-10.17,4.53-18.5a5.41,5.41,0,0,1,.61-6c.83-.07,1.66-.11,2.48-.2,6.33-.65,7.19-1.55,8.37-7.67.53-2.74.3-5.69,1.92-8.19a8,8,0,0,1,1.26-.83c2.77-1.08,5.25-2.58,5.35-5.88.11-3.46-2.88-4.54-5.3-6-3-1.73-6.48-2.43-9.33-4.62,7.52-6.86-1.71-9.71-3.5-14,1.72-2.37,4-1.93,5.83-2.46,7.39-2.14,8.37-5.56,3-11.08-.17-.18-.14-.56-.16-.69,4.42-3.81,8.86-7.42,12.67-11.82,2.3-2.64,3.67-5,2.83-7.54-1.32-3-3.59-3.6-5.14-5.09,1.52-2.49,3-4.76,1.72-7.86-2.53-3.75-7.52-2.39-11-4.49,3.73-5.87,9.06-10.7,10.25-17.46-2.12-5.81-7.84-4.31-11.54-6.62,6.28-8.53-2.8-9.45-7-13,5-4.52,13.83-2.3,15.76-10.35-3.15-6.66-10.32-4.38-15.18-7.1.12-.72.21-1.37.33-2,1-5.06,1.29-10-3.23-13.73-1.38-1.16-1.19-2.6-.6-4,3.44-2.91,9.9-2.71,9.55-9.45l-2.4-3.66c4.44-1.91,9.69-1.49,13.2-4.91a5.94,5.94,0,0,0,0-5.16c-2.24-2.84-5.8-2.64-8.93-3.64,1.06-1.68,3.41-1.74,4.41-4.71a8.41,8.41,0,0,0-.35-3.59c-2.12-2.77-5.22-5.07-7-8.61l5.75-2.41c2.42-1,4.54-2.43,4.33-5.42s-2.4-4.31-4.93-5a17.47,17.47,0,0,1-9.47-5.61c1.85-2.83,3.31-5.73,5.76-8.13,3.7-3.63,2.1-8.06-3-9.22-1.45-.33-3-.34-4.28-1.3.63-2.08,2.72-2.82,4-4.3,3.39-3.92,2.78-7.32-1.8-9.64-1.47-.73-3.09-1-4.42-2.21-3.77-3.31-7.66-6.53-13.08-5.42-1.09-2.58-3-4.17-3.44-6.78,3.28-2.36,3.54-6.38,5.33-10-4.17-.53-4.89,3.72-8,5-6.58-2.77-10.07,5.09-15.74,5.94a3.11,3.11,0,0,1-.14-3.39,21.33,21.33,0,0,0-.13-15.88c-2.69-6.85-4.16-8-11-5.33-.62.24-1.26.42-2,.64l-7.11-2.06-4.76,1.8c2.46-5.13,2-10.53,5.59-14.73-2-3.11,1.17-7.23-2.86-10.6a97.48,97.48,0,0,1-12.53,32.42c-1.37-1.14-2.85-1.85-3.53-3.46-.71-7.23-3.73-13.5-6.59-18.73-11-3.86-15.34,2.37-18.46,10.52-5.92-6.28-11.51-1.66-17.52-.78-1.95-3.5-5.07-5.21-9.5-3.63-.68-3.86-.43-7.54-1.13-11.13-.52-2.68-1.36-5-4.15-5.61-3-.69-4.44,1.57-5.65,3.88-.64,1.24-.86,2.73-2.39,4-1-4.05-4.44-5.31-7.29-7.17-3.59-2.35-6.55-.5-9.31,2.1-1.73-2.51-3.09-4.95-6.22-4.87-3,.05-4.35,2.91-6.83,3.92-1.85-.77-3.52-2-5.48-2-5.89,1-6.1,8.58-11.92,10.07,0-5.29-2.71-9.2-5.29-13.25-1.5-2.35-2.82-4.76-5.93-4.52-2.84.21-4.12,2.43-5,4.94-1.59,4.51-3.29,9-4.94,13.44a14.67,14.67,0,0,1-6.5-.28c-2.41-6.66.25-14.27-4.22-19.91-5.17-2.46-6.73,1.69-9.15,4.73-1.29-3.12-1.93-6.16-5.47-6.4s-4.51,3.36-6.76,5c-1.21-1.5-1.86-3.13-3.48-3.91a6.15,6.15,0,0,0-4.7.22c-2.41,1.79-2.59,4.82-4.18,7.11a19.56,19.56,0,0,1-4.09-6.3c-3.46.44-5.87-3.88-9.51-1.71-2.93,1.66-2.9,5.26-4.54,7.8-1.67-.91-2.19-2.55-4.44-3.31-3.53-1.24-5.18,2-6.92,4.82-3.52-4.74-6.68-9.51-11.73-11.7a5.78,5.78,0,0,0-5.31,4.69c-.63,2.4-1,4.87-1.76,7.24-1,3.06-.41,6.62-3.21,10-3.14-3.64-7.19-5.54-11-7.65,2.62-5.26,3.77-10.53,7.82-13.7.52-2,.25-3.66.9-5.29.54-1.37,1.23-3.23-1.09-4.5-5.22,6.2-6.39,14.89-12.91,20.58-3.23-1.21-6.78-.75-10.27.89-3.2-2-6.83-1.12-10.36-1.67-3.13-6.54-8.62-8.71-14.85-8.65-3.75,1.76-3.86,5.35-5,7.08-8-1.44-15.31-3-22.86-.71-4.38-9.9-7.31-10.78-12.65-3.78a3.57,3.57,0,0,1-.64-.65c-1.47-2.45-2.85-5.24-6.33-4.69-3.65.58-4.17,3.87-5,6.72-1,3.17-1.18,6.54-2.72,10.09-4.36.1-7.81,4-12.4,4a9,9,0,0,1-.75-1.25,12.14,12.14,0,0,1-.85-2.86c-.68-9.05-7.95-13.51-13-19.49-1.48,1,0,2.44-1.14,3.2-4.67,4.3-10,8-11.77,14.75-.6,2.27-1.06,5-4.33,5.3-1.63-2.32-2.35-5.3-4.51-6.27-2.78-1-4.85-.12-6.75.08-2.58-4.4-1.87-10.5-7.55-12.22-5.29.35-5.64,4.88-7.5,8.15-2.33-.55-4.4-2.18-7.59-.61-1.09.39-1.79,2.39-3.17,3.85-1.52-2.88-2.55-6-6.21-6.12s-4.42,3.33-6,6.14c-1-3.27.37-6.53-1.65-9.41l-1.88,3.62c-7.06.42-11.94,4.07-14.25,10.49-.9-.58-1.1-1.62-1.63-2.45-2.43-3.76-5.46-4-8.62-.89a16.7,16.7,0,0,0-2.51,3.71c-.85,1.49-2,2.71-4.14,2-2-3.86-2.88-8.47-6.41-11.46a7.15,7.15,0,0,0-4.46,0c-3,1.69-3.17,4.91-4.35,7.91-3.6-1.88-6.49-6.06-11.21-3.35-2.06,3.23-2.06,3.23-.65,10.77l-.77.72c-1.08-.4-2.17-.78-3.24-1.2-2.3-.88-4.59-1.12-6.44.83s-1.8,4.1-1.16,6.5c.39,1.43,1.39,2.68,1.21,4.52-1.09,3.44-.31,7.61-2.56,11-3.13.47-7.1-1.45-8.17,3.43-2.14,1.19-4.9.28-7,2.05C546.48,415.76,546.32,417.27,548.14,417.83Z" transform="translate(-436 -346)"/><path class="b" d="M1097.79,752l-5.6-3.82c-2.15-.43-3.73.73-5.35,1-3.41,5.59-3.46,5.64-8.45,7.32-.19,3.78-.19,3.78,2.44,7.55-.13,5.27-1.1,6.14-8.35,7.43a6.68,6.68,0,0,0-2.42,3.26c.76,3.63.83,7.2-3.26,9.32-.27.14-.64.44-.66.68-.42,6.35-5.09,7-10.07,7.18-1.37,4.14-4.75,6.36-7.91,8.58-2.09,4-.22,9.4-4.5,12.32-4.82,1.8-7.28-1.57-9.8-4.36s-6.5-3.54-8.29-7.51c-4.1,3-8.1,3.08-11.95,0-3.32,1.44-6.6,2.51-10.16,1-1.87,3.58-1.66,8.52-7,9-8.82-2.27-13.1-8.85-15.33-17.35-4.91,1.81-10.13.91-13,6.12-.5,4.23-.86,8.88-1.66,13.46s-4,7-9.66,7.71c-4,.53-5.58-2.22-7-5.15-.44-.88-.93-1.74-1.4-2.61-2-.06-3.2,1.84-5.12,1.86s-3.12-1.06-4.76-1.66c-1.76,3.28-.79,7.72-4.35,10.23-7.85,2.11-7.85,2.11-16.53.2-1.39-.71-2.08-2.1-3-3.48a5.84,5.84,0,0,0-.86,1.24,35.46,35.46,0,0,1-1.23,4.3c-1.38,3.08-4.17,4.25-7,2.37-4.2-2.82-8.53-5.58-9.79-11.27-.78-3.5-1.35-7.16-3.21-10.77-2.32,1.22-4.75,1.06-7.22.68-3.22,6.93,1.25,16.25-6.33,20.95-3.64,0-4.85-2.14-6.51-4.29-.59,2.09-1,3.92-1.64,5.68a4.85,4.85,0,0,1-4.48,3.46,4.29,4.29,0,0,1-4.43-3.33c-.79-2.47-1.57-5-2.46-7.73-1.51,2.46-2.27,5.84-5.92,5.33s-4.4-3.75-5.29-6.57c-1-3.16-1.7-6.42-2.59-9.87-2.42.95-2.19,3.11-2.58,4.89-.67,3.08-1.25,6.18-1.88,9.27-.54,2.61-1.67,4.89-4.57,5.26-3.2.41-4.74-1.91-6-4.38-.67-1.34-1.22-2.73-1.83-4.1a6.58,6.58,0,0,0-3.64-3.95c-1.69,2.89-.72,6.27-1.84,8.58.24,2.66,2.4,3.84,2.4,6.25-1.49.53-2-1.91-3.48-1.42-2.11.93-4.21,1.89-6.34,2.8-4.79,2-7.53.77-8.71-4.59-1.31-6-2.13-12.11-3.18-18.17-.08-.48-.26-.94-.39-1.42-1.9-.27-1.66,1.33-1.93,2.27-.73,2.55-1.21,5.17-1.93,7.73-2.12,7.57-5.77,8.53-11.6,3.07a17.33,17.33,0,0,0-7,8,5.32,5.32,0,0,1-5.63,3.33c-2.81-.29-3.88-2.61-4.31-4.9-1.22-6.53-2.17-13.11-3.2-19.68-.18-1.11,0-2.34-1.29-3.32-3.32,3.59-2.09,10.18-8,11.91-3.33.07-5.16-2.46-6.9-4.5-4.51,0-6.57,3.43-9.41,5.58-2.38,5.87-4.13,12-8.45,17.31-3.28-3.83,2.39-7-.32-10.32,2.67-1.92,3.67-4.34,4.38-7-.87-1.56-2.41-2.55-3.7-3.74-3.23-.69-4,1.48-4.8,3.81-1.29,3.71-1.7,7.9-5.22,10.4-10.43,2.54-10.43,2.54-14.68-8.12-1.48,4-5.07,5.72-7.72,8.32-2.88,2.84-6.3,2-8.84-1.66-4-5.8-8.06-11.61-12-17.47-1-1.4-1.69-2.92-4.15-2.54-2.14,1.83-2.63,5.49-6.1,7.12l-5.48.35c-1.78,1-2.24,2.88-3.16,4.42-3.47,5.8-7.35,6-11.13.65-2.72-3.9-6.38-7.24-7.15-12.31-.18-1.2-1.19-1.95-2.65-2.28-2.92,3.78-1.81,10.48-7.7,12-2.6,0-3.8-1.83-5.66-2.87-2,4.18-1.88,9-4.88,12.43a5.31,5.31,0,0,1-5.73.18c-2.88-3.18-2.11-7.26-2.64-11s-.48-7.28-.71-11.41a11.12,11.12,0,0,1-8.24,0,42,42,0,0,0-1.89,4.32c-1.72,5.66-6.61,7.08-11.4,8.4-3.07.85-5.11-1-6.1-3.84a56.23,56.23,0,0,1-1.35-5.78c-2.12,1.54-4.15,2.77-5.92,4.31-6,5.25-8.54,4.64-11.47-3.21-1.68,2.89-2.12,6.82-6.11,7.23-2.84.29-4.59-1.59-5.67-4-1.05.16-1.39.91-1.82,1.59-1.3,2.08-3,3.69-5.63,3.37-2.95-.34-4.07-2.68-4.82-5.13a30.12,30.12,0,0,1-1.26-5.84c-.21-2-1.38-3.3-3.26-4.77-3.83,4.32-1.76,10.93-5.71,15-1.33-1.4-2.14-6.84-1.5-10.77-7.29-2.33-3.6-11-8.3-15.34-3.38,4.22-1.86,12.48-9.77,11.51-2.15-.63-2.84-2.12-4.21-3.18-3,3.26-3.61,8.22-7.64,10.71-5.09.46-6.56-.76-6.79-5.85-.21-4.43.79-9-2.18-13.27-1.2-.52-2.14.81-3.34,1.11-2,.5-3.95.6-5.56-1.07a4.87,4.87,0,0,1-.76-5.61,80.14,80.14,0,0,1,4.2-7.46c-2-1.55-4.25-1-6.13-.36-4.86,1.63-8.05,0-10.27-4.36a9.75,9.75,0,0,0-1.22-1.53c-3.43-.65-7.18.23-10.21-2.66-1.63-3.07-1.09-6,1.84-8.17,4.1-3,6.29-7.66,10.22-10.59-2.73-3.73-7-5.45-9.24-9.69s-3.91-7.81.68-11.88c-5.29,1-8.7-2.16-12.57-3.76-5.69-2.37-6.17-6.71-1.43-10.64l1.95-1.65c-4.85-4.78-5.34-11.25-7.15-17.13-1-3.12,1.68-5.18,3.19-7.4.3-3.55-.86-7.13,1.22-10.36-1.23-1.74-3.32-1.64-4.77-2.68-3.7-2.65-3.52-6.6.54-8.71,3.71-1.92,8-2.21,12.07-3.66,0-2.28-1.52-3.31-3.21-3.9-3.54-1.24-5.6-3.73-7.4-6.93-1.51-2.71-2.83-5.63-5.27-7.82-1.63-1.46-1.48-3.6-1-5.58,1.88-3.65,6.1-3.82,9-6,.2-4.23-3.56-3.86-5.76-5.09-2.41-1.35-4.54-2.79-5.22-6.18,1.89-6.67,8.8-4.61,13.8-6.94-2.83-3.61-2.87-7,1.32-9.87-2.44-2-5.35-2.1-7.8-3.2-3.89-1.76-4.53-2.87-4-7.45,2.81-3,6.68-3.16,10.49-3.33a73.52,73.52,0,0,0,11.23-1.33c-.06-.94.09-1.68-.16-1.86-3.64-2.64-5.51-7-9.34-9.45-3-1.89-4.35-4.43-3.88-8a30.86,30.86,0,0,0,0-3.75c-.32-1.27-1.62-2.18-2.42-3.43-2.84-4.35-1.75-7.7,3.1-9.22a25.66,25.66,0,0,1,3.89-.84c2.13-.33,4.37.09,6.42-.77,1.82-.77,3.58-1.7,5.82-2.77-2.11-1.66-4.8-2.31-5.84-4.15-1.4-1.82-.67-3.7-1.5-5.18-5.82-3.75-11.63-7.5-15.24-13.75,3.9.57,7.48,1.08,10,4.85,3.07,4.59,7.67,6.65,13.74,5.12-3.64-5.48-2.25-10.6,1.14-15.78-2-1.4-4-2.77-5.95-4.25a4.79,4.79,0,0,1-1.76-5.78c.78-2.14,2.62-2.87,4.81-2.85h5.71l-1.57-4.1c0-4.19,3-5.08,5.95-6-2.78-5-10.78-7.09-7.67-14.76,4.7-2.94,8.09.65,11.92,1.85,1-1.54-.41-2.46-.88-3.5-1-2.29-2.42-4.47-.78-7s4.16-2.2,6.61-1.65c1.32-2.27,3.34-3.46,5.12-4.71.64-1.11.09-2.07.06-3.05-.14-4.85,3.56-8.25,8.07-6.64,5.52,2,10.23.36,15.53-1.57-3.07-3.87-5.36-7.71-4.16-12.58,7.32-2.93,15.11-3.37,22.8-4.36-1.6,4.34-5.76.9-8.62,3,.61,3.41-2.57,4.89-5,7.19,2.59,2.87,4.08,6.27,7.25,8.79,1-1.5,1.8-3,3.59-3.67h4.44c2.44,3.15,7,3.58,9.17,7.53,1.07-4.79,0-10.33,6.1-11.6,4.55,2.13,5.66,6.45,8.18,10.08,3.43-3.38,6.66-2.41,9.7.53,1.26-4.94-1.28-10.17,2.67-14.23,4.09-1.36,7.8.61,11.41,1,4,2.92,4.86,9,10.74,9.3l3.41-2.6c2-.14,3.86-.35,5.41.15,2.53,1.27,3.73,4.92,7.23,3.35,1.69-4.27.19-9.7,5.19-12.4,4.48-1.09,6.34,1.9,8,5.13,1.26,2.49,2.23,5.25,5.86,5.37,1.17-3.66,2.74-6.92,7.74-6.57,4.79,3,4.4,9.14,7.39,13.61,7.85-6,6.91-16.25,11.31-23.34,5.26-.42,6.77.34,8.08,4.45,1.21,3.77,1.91,7.7,3.06,11.49.68,2.25.69,4.92,3.22,6.67,3.17-5.84,7.13-10.92,9.59-16.47l7.67-1.95c1.51-2.5,2.63-5.19,5.43-6.45,3.86-.63,6.41,1,7.87,4.55a14.2,14.2,0,0,0,5.69,6.86c1.12-3.17,1.23-6.62,3.81-9.23a8.85,8.85,0,0,1,4.58-.18c2.26,1.08,2.21,3.18,3.72,4.2,1-3.62,1.31-7.66,5.59-9.26,3-.22,4.65,1.75,5.74,4a31.56,31.56,0,0,0,6.62,9.22c1.72-3.2,1.35-7.71,5.56-9.2,10.79,1.09,13.41,9.36,15.42,18.26,4.85-3.14,6.89-10.23,13.86-6.38l4.41-8.71c-.84-3.1-1.79-6.14-3.79-8.62a17.53,17.53,0,0,1-3.71-11,5.48,5.48,0,0,1,4.35.06c2.61,7.16,5.54,14.15,10.7,20.26,2.54-2.43,2.6-5.94,5.12-7.75a7.58,7.58,0,0,1,5.51.33c3.75,4.68,2.49,11,4.76,16.45,5-1.21,9.76-2.31,14.73-2.16,2.24-2.78,3.79-6.19,7.37-6.59,5.78,1.09,5.52,6.45,7.75,9.85,1.45,1,2.81,1.93,4.65,1.86a9.16,9.16,0,0,0,4.13-2c2.41-6.21,7.94-10.08,12.13-15.08,6.62.09,10.13,4.35,13.57,8.84,1.86-1.68,2.07-4.71,4.89-5.55,10.39-.58,12.09.84,13,11.21a15.41,15.41,0,0,0,1.55,5.26c6.65-3.78,9.68-11.87,16.62-13.82,4,1.45,4.2,4.64,5.59,7,1.8-.94,2.14-2.93,4.54-3.74a4.54,4.54,0,0,1,4,.69c3.62,2.82,2.1,7.31,3.27,11,3.43-1.61,3.43-1.61,6.62-1.53,1.75.36,2.19,2.76,4.23,2.35,3.65-12.68,5.25-13.67,14.07-8.55l4.44-1.83c1.55.64,3.32.61,4.23,1.62,1.74,2.56,1.32,5.49,2.81,7.64,5.12-1,6.8-7.21,12-7.34,2.59,1.12,3.67,3.47,5.32,5.81,1.74-2.75,2.83-5.81,6.37-5.75,4.28.12,4.45,4.5,5.9,5.86,12,.08,19.88,4.79,25,15.2,3-7,6.28-13.46,12-18.28l2.48.32a9,9,0,0,0,3.55,7.82c1.76,1.52,3.45,3.1,3.87,5.6.07.37.69.64,1,.93l3.7-1.45c4.48.23,4.33,4.06,6,6.66,3.35-3.77,4.87-8.67,9.3-11a8.68,8.68,0,0,1,4.49,1.38l1.12.77,0-.11c.24,5-1.56,9.69-2.89,14.4,4.74,2.07,4.74,2.07,9.51.91,5.51,2.28,6.17,3.37,5.56,9.37,2.86,1.71,7.21,2,7.42,6.51-.36,2.68-2.7,3.89-3.68,6-.17.14-.33.28-.18.16-.13.15,0,0,.15-.19,2.47.23,5-.32,7.37.3,2.69,1.55,3.13,3.77,2.65,5.21-2.5,5-7.55,5.42-9.62,9.1,1.19,1.73,2.78,1.37,4.24,1.4,2.83,0,5.68-.18,8.49.1,3.9.39,8.06.61,9.78,5-.57,6.16-7,6.24-9.88,10.07.32,3.33-.75,6.49-1.38,9.29-1.1,2-3.56,2.69-3.4,5,1,1.69,2.63,1.48,4.1,1.5,2.12,0,4.18.65,5.31,2.32a60.72,60.72,0,0,0,10.06,11,9.57,9.57,0,0,1,0,5.11c-2.41,3.92-7.2,3.35-10.84,6.25,3.72.24,5.84,1.79,7,4.31.05,3-2.29,4.5-3.56,6.73,2.85,1.28,5.41,2.53,6.69,5.52.11,3.06-1.53,5-4.19,6.61-2.34,1.39-5.1,2.62-5.24,6.31,3.35,1.33,7.53,1.61,9.3,6a52.43,52.43,0,0,1,0,9c-2.33,4.34-7.43,3.61-10.3,5.92-2.36,4.67,4.06,6.67,3.12,10.77-2.71.39-4.8-1.87-7.19-.13.92,1.66,2.79,2.51,3.4,4.28a12.74,12.74,0,0,1-.42,5.72c6.27,2.23,12.82,2.08,18.37,5.34l0,6.08c-3,2.3-6.61,2.69-10.28,3s-7.61.93-11.9,1.47c2.36,3.39,6.06,3.88,7.79,6.49a57.1,57.1,0,0,0,12.93,14.09c.24.19.32.58.45.84.77,3.62-.59,6.87-1.35,10-3.94,4.06-6.67,9.07-12.07,10.32-1.69,4.93,3.66,7,3.13,11.83-2.08,4.59-7.16,6.8-12,9.36,3,1.61,6.5,2.19,8.3,5.22a9.48,9.48,0,0,1-.49,5.73c-5.18,3.9-12.47,5.18-18.63,9.24l5.88,5.23a7.75,7.75,0,0,0,4.8-.56c1.62-5.87,7.5-6.42,12.67-8.41,2.56,1.18,5.84,1.26,7,4.68C1099.2,746.41,1097.92,749.16,1097.79,752ZM495,474h4.4c2.07.27,2.58,2.27,4.59,2.17-.27-2.93.31-5.86-.4-8.87l-5.34-.76c0,2.94-1.63,5.18-3.31,7.4-1.64.12-2.21.85-1.61,2.48C494.8,476,495,475.06,495,474ZM748,805l4.14-.7,5.25,1.43c3.46-10.78,6.87-9.44,15.85-7,3.71,5.91,2.32,13.38,5,19.72,4.13-.51,4.32-5.26,8.35-6.5a7,7,0,0,1,6.07,1.72c1.22-5.24,2.54-9.87,7-13.43,4.19-3.36,5.11-4.22,10-1.9.5-1.84.53-4.34,3.83-3,2.08,3.94,1.37,9,3.94,13.2,1.68-7.61,2.68-8.62,7.91-8.35,5.55,2.67,3.69,10.57,9.59,13.43,1-8.32,5.7-12.84,11.87-14.53,4.75.92,4.63,4.56,6.68,6.57,1-2,1.21-4.13,3.14-5.39a7.26,7.26,0,0,1,5.13.17c2.75,2.51,2.41,6.38,4.19,9.36,1.56-1.23,2.09-3,3.78-3.63,2.2-.76,4.11.14,5.82,1.32,1.81-2,1.32-4.28,1.55-6.4.6-5.58,2.33-7.12,7.33-6.79,1.94.74,2.67,3.09,4.83,3.44,1.59-.93,2.93-2.27,4.79-2.51,4.93,1,5.76,5.14,6.84,8.93,1.2,4.21,1.77,8.6,3.84,12.4,1,0,1.18-.52,1.25-1,.36-2.45,1-4.83,1.18-7.35.41-5.89,2.45-7.5,7.75-6.76,3.46,2.75,4,7.13,5.69,10.85,2.19,4.78,2.27,5,8.06,4.14,2.27-3.22,1.21-7.3,2.35-10.9,1.48-4.63,2.93-5.8,7.77-5.18,1.63.92,2.38,2.86,4.4,3.45,1.52-.55,2.31-2.33,4.3-2.8,7-.31,6.22,7.45,10.7,11.1,1.61-6.64.78-13.26,3.48-19.15,6.62-5.66,14.72-7.29,22.2-9.23,6,4.41,4.78,12.4,10.32,16.38,2.12-2.85,2.11-6.64,5-7.64,3.64-1.45,5.93,1,8.81,1.56a13.41,13.41,0,0,1,10.94,0l3.21-2.46c2.33-1.07,3.94-.21,5.51-1.3.53-.77.05-2.2,1.12-3a2.59,2.59,0,0,1,3,.44,40.5,40.5,0,0,0,1.67,9c1.43,1.44,2.68,3.24,5.54,4.45.54-5.34,4.88-7.53,8-10.73a2.19,2.19,0,0,0,.61-.79c1.54-4.92,5.21-7,10.4-7.14-.46-6.57-7.51-9.32-7.89-15.4,2.24-4.25,4.16-5,9.35-3.9,2.33.49,4.62,2.09,7.93.66-5.22-3.19-10.63-5-13.28-9.85-.6-4.65,3.69-4.84,5.65-6.84-.79-3.39-.79-3.39,2-11.36,3.08-3.19,8.21-2.44,11.49-6-4.94-3.61-11.49-4.18-14.23-9.94a6.42,6.42,0,0,1,2-4.37c5.28-2.73,11-.89,16.47-1.84.92-1,2.37-1.67,3-3.12a30.17,30.17,0,0,1-2.2-12.93c1.37-3,4.16-3.67,6.82-4.63a9.47,9.47,0,0,0,6.65-9.39,25.64,25.64,0,0,1-7.47-7.69c-1.18-2-2.52-4.45-4.4-5.26-5.47-2.34-7.71-7.63-11.65-11.14-.34-2-.64-3.79.18-5.23,1.66-2.23,4.53-1.79,6.18-3.61-1.76-1.66-4.08-2.64-4.56-5.08.12-2.38,2.08-3.81,2.83-6-2.4-1.21-4.12-2.94-4.61-5.49.48-4.07,4.22-5.34,6.66-7.78-3-5.44-6-10.69-10-15.09a5,5,0,0,1,2.63-2.89c3.47,2.21,4.59,6.89,8.79,8.75,3.51-1.57,7.68-1.94,11.05-5.29-4.9-2.3-10.34-1.94-13.24-6.46-1.26-6.65,5.68-8.94,7.21-14-5.24-3-5.24-3-6.25-6.77-.15-1.91,2.28-2.47,2-4.33-9.73-.77-11.26-1.68-12.07-7.55,4.71-5.74,12.56-5.78,18.67-9.19a9,9,0,0,0-4.45-7.27c-6-.71-11.9-2-17.31-.79-1.46-1.92.28-2.88-.54-4.46-.67-1.18-2.54-2-3.24-3.76-.29-4.59.14-6.81,2.78-8.46,4.4-2.76,6.81-7.66,11.42-10.19a4,4,0,0,0,1.88-3.31c-13.62-1-19.12-4.52-18.8-11.77-1.28-1.53-3.52-1.09-5.11-2.83a9,9,0,0,1-.15-5.13,40.74,40.74,0,0,1,8.61-7.88c-3.92-2.06-3.83-5.67-4-9-2-.88-3.92-1.07-5.5-.15-4,2.31-7.5,2-10.48-1.4-2.38,1.56-4.24,3.44-7,2.79-2.27-1.1-3-3.09-3.12-5.26-1.8.07-2.93,1.45-4.67,1.25a6.22,6.22,0,0,1-3.54-2.25c-3.54-4.82.77-11.62-4.08-16.63-3.06,4-3.16,9.49-8.63,11.84-2.47-.64-5.28,2.26-8.6.72-1.59-1.16-3.36-2.53-3.6-4.55-.73-6.27-5.38-8.19-10.41-10.11-2.52,1.51-4.77,3.86-7.84,3.05-1.89-.34-2.56-2.35-4.51-2.59-1.53,4.12-2.78,8.28-7.89,8.56-4.69-2.46-4.81-6.92-5.2-11.55-5.31,1.51-6.07,7.77-11.22,9.59a3.5,3.5,0,0,1-3.2-1.14c-3-3.21-3-7.53-3.84-11.53-2.79-.55-5.48.17-8.19-1.34-1.54,5.21-2.93,9.94-4.33,14.68-.9,3.05-2.55,5.39-5.06,5.93-4.25.18-4.68-3-6-5.2-3.1,4.28-3.1,4.28-6.69,5.52-4.3-2.23-4.65-3-5.51-12.22-2,.3-3.24,2.37-5.81,2.21-1-.44-2.44-.81-3.3-2-1.85-3.3-1.22-7.22-3.52-11.1-4.15,5-9,8.55-14.13,12.14a12.15,12.15,0,0,1-5-.42c-4.67-4.78-2.24-12.31-4.94-18.46-4.6,5.15-2.11,13.95-9.63,16.73-3.12-.49-4.58-2.36-5.31-4.93a53.15,53.15,0,0,1-2.05-10.2c-.15-2-.57-3.65-3.38-3.53-1.31,3.21-5,4.44-6.63,7.71-4.66,9.37-16.11,10.44-23,2.64-.64-.73-.81-1.86-2.22-2.32-2.9,2.57-6.33,3.86-10.19,1.83l-4.61,1.53c-5.57,7.35-5.57,7.35-9,8.41-6.62-3.56-4.1-10.85-6.49-16.34-1.47.49-2.28,2.42-4.21,2.36-1.8.46-3.14-1.56-5-1.25-1.7,2.73-1.64,6.39-4.39,7.76-3.14,1.35-5.64-.17-8.37-.45-2.93,4.38-7.71,4.8-12.36,5.89-7.55-2.42-5-11.09-9.06-15.83-2.71,3-1.73,6.58-2.78,9.66s-.87,6.67-4.36,8.21c-3.78.13-5.8-1.8-6.8-5-.8-2.53-1.38-5.12-2.2-7.64-.54-1.65-.84-3.6-3.33-4.21a47.48,47.48,0,0,0-1.7,7.17c-.78,4.57-2.89,5.89-7.57,5.11-1.89-.2-1.64-2.91-4-3-.43,2.25-.76,4.59-2.74,6.23a8.39,8.39,0,0,1-5.83-.13c-4-4.89-4.24-12.6-10.27-16.9-1.83,3.16-5.2,3.38-7.7,3.69-2.94,1.43-2.76,4-3.84,5.79s-2.76,3.26-3.74,5.26c-4,8-4,7.95-12.8,6.7a5,5,0,0,1-2.4-.62c-3.34-2.84-2.63-7.7-5.19-10.95-3.44,2.63-4.57,6.63-7,10.29-3.17-.43-4.16,3.13-6.84,4.16-1.63.12-3.3.45-4.93-.47-2.12-2.26-2.64-5.57-4.63-8-4.5,3.44-6.62,3.45-10.56-.11a19.56,19.56,0,0,0-5.62-3.78c-1.83,2.56-.89,6.22-3.92,8.18a12.39,12.39,0,0,1-5.91,0c-2.63-2.73-6.19-4.1-9.63-5.72-1.73,1.35-3.33,2.56-5.08,2.83a22.89,22.89,0,0,1-16-10.85c-1.36,8.56.28,16.94-2.32,24.84-1.65,2.37-3.78,2.6-6.33,1.66-3.55-3.19-4.27-8.05-6.48-12-2,.25-3.42,1.88-5.41,1.36-1.59-.08-2.17-2-3.78-2.11-2,5.33,2.89,13.13-5.78,16.24-8.08-4.27-6.51-14.1-11.4-19.89-2.06.64-2.18,2-2.26,3.32-.29,5.49-4.39,9.47-5.8,14.57-.56,2-3.16,2.76-5.16,2.94-2.71-.22-4.82-2-7.49-1.68-2.08,3.47-.7,10.42-7.62,8.54-3.64-1.91-4.42-5.58-7-7.68l-5.94,2.7c.66,1.37,1.61,2.41,1.6,3.44-.08,6.88,2.69,13.23,3.58,19.94.59,4.5.09,9.17,2.42,13.49,1.63,3,.29,5.16-3,6.1-2.23-8.11-4-16.35-5.83-25.31-2.53,2.1-4.64,2.88-7.25,2.54a6.3,6.3,0,0,1-1.69,6.56c-1.06.66-2.95.5-4.3,2l1.1,2.85c.53,5.82-5.33,5.38-6.53,9,3.11,3.3,8.22,3.37,10.54,7,.79,2.26.23,4.2,0,6.47,2.57-.14,4,1,3.95,3.57-2,1.33-4.68-.44-6.26,2-.47,1.52,1.26,3,.5,4.67a8.32,8.32,0,0,1-3.4,3.63c-3.7.48-7.38,1.69-11.37,1.26-3,2.59-6.84,2.92-11,3.38,1.58,3.4.56,6.77,1.17,10,3.32,2.21,5.39,5.51,8.1,8.12,6.59,6.34,7.36,8.82,3.65,16.94a25.73,25.73,0,0,1-6.93,2c3.61,2.08,7.85,3,6.82,7.65-1.27,3.18-4.46,3.58-6.86,5.56,2.57,1.9,3.76,4.13,2.59,7.18-2.63,3.77-7.31,3.09-11,4.68,2.43,4.09,3.93,8.37,3.38,12.06-1.66,3.92-4.77,4.5-7,6.45,2.47,11.78,14.12,13.19,21.42,18.76a6.55,6.55,0,0,1,.28,5.1c-3.56,4.2-9.43,3.82-14.3,6.13.3,1.94,1.84,3.37,1.53,5.93a30.39,30.39,0,0,1-1.43,3c-.68,1.12-2,1.83-2.33,3.19.31,7.33.31,7.33-2.89,11.91l2.87,9.43c3.47,1.26,6.82,2.47,7.61,6.47-.07,3.37-3.61,4.63-4.61,7.15a3,3,0,0,0,3,2c4.14-.21,8.27.39,12.42-.63,5.28-1.29,7.9-.06,10.5,4.37-1.13,7.92-9.15,7.5-13.86,11-.28,1.33-.41,2.69.67,3.36,2.64,1.64,4.52,4.52,7.94,4.89s5.5,2.12,6.15,5.58a8.2,8.2,0,0,1-4.38,5.69,23.29,23.29,0,0,0-9.15,8.45,12.54,12.54,0,0,1,7.14,6.7c5.21-1.78,10.74-.74,15.81-2.4,1.82.58,3.42,1,4.19,2.32,1.61,4.05-.93,7-2.15,10.28,6.47,1.3,4.24,7.45,6.44,11.45,2.71-1.82,3.61-5.64,7.69-5.72,1.32.18,2.58,1.65,4.16,2.26,1.81-3.27,2.73-6.65,6.09-8.38a9.73,9.73,0,0,1,5.58.43c1.7,4.09,6,7.14,7.41,12.18,2.28-1.09,1.61-3.58,4-5.26,5.38,4.59,9.23,10.54,12.77,17,1.4-2.48,3.48-3.6,5-3.58,2.83.26,3.46,2,5.07,2.48,2.59-4,2.08-10,7.89-12.55,7.6,1.56,5.5,8.67,7,14,3.59-1.27,4.12-4.5,5.38-7,1.56-3.08,3.44-5.28,7.54-4.78,5.41,3.8,3,10.79,5.73,16.34,4.06-4.13,3.6-11.34,10.37-12.39,1.41.13,2.71,1.25,4.7.61,1.88-2.17,3.65-5.18,7.54-5.63,5.17,1.33,4.23,6.41,5.67,10.21,1.61-3,2.95-6,6.79-5.16,2,1.12,3,2.81,4.37,4.36,1.87-3,2.49-7,7.45-7.42,7.84,3.87,9.68,13.11,14.9,19.82,2.15-2.35,3.53-4.69,5.87-5.72,2-.46,3.86.24,5.71-.64,1.6-2.39,2.68-5.25,5.05-7.37,6.54-.78,11.53.72,15.66,6.8,3.3,4.87,5.63,10.57,10.39,14.44,2.75-1,3.74-3.38,4.33-6.07a55.75,55.75,0,0,1,3-10.48c1.06-2.4,2.42-4.37,5.93-4.66,7.81,5.28,3.42,15.3,7.56,22.74,2.2-4.22,2.66-8.54,5.1-11.94,1.66-2.31,9.53-4.66,12.17-3.56,1.11.39,1.73,2.14,3.36,2.27,3.46-2.75,3.93-6.71,4.21-10.34,1.47-1.58,2.77-1.8,4.38-.72A23.91,23.91,0,0,0,748,805l.18-.14ZM512.2,465.68c3.15,3.27,2.59,8.8,7.14,11.46,1.63-3.52,3-6.55,4.78-10.35C519.68,467.74,516.23,466.15,512.2,465.68Z" transform="translate(-436 -346)"/><path class="b" d="M574.49,386.56c-1.41-7.54-1.41-7.54.65-10.77,4.72-2.71,7.61,1.47,11.21,3.35,1.18-3,1.34-6.22,4.35-7.91a7.15,7.15,0,0,1,4.46,0c3.53,3,4.41,7.6,6.41,11.46,2.16.72,3.29-.5,4.14-2a16.7,16.7,0,0,1,2.51-3.71c3.16-3.16,6.19-2.87,8.62.89.53.83.73,1.87,1.63,2.45,2.31-6.42,7.19-10.07,14.25-10.49l1.88-3.62c2,2.88.6,6.14,1.65,9.41,1.57-2.81,2.3-6.23,6-6.14s4.69,3.24,6.21,6.12c1.38-1.46,2.08-3.46,3.17-3.85,3.19-1.57,5.26.06,7.59.61,1.86-3.27,2.21-7.8,7.5-8.15,5.68,1.72,5,7.82,7.55,12.22,1.9-.2,4-1,6.75-.08,2.16,1,2.88,3.95,4.51,6.27,3.27-.31,3.73-3,4.33-5.3,1.8-6.71,7.1-10.45,11.77-14.75,1.13-.76-.34-2.19,1.14-3.2,5.09,6,12.36,10.44,13,19.49a12.14,12.14,0,0,0,.85,2.86,9,9,0,0,0,.75,1.25c4.59,0,8-3.86,12.4-4,1.54-3.55,1.76-6.92,2.72-10.09.87-2.85,1.39-6.14,5-6.72,3.48-.55,4.86,2.24,6.33,4.69a3.57,3.57,0,0,0,.64.65c5.34-7,8.27-6.12,12.65,3.79,7.55-2.29,14.87-.74,22.86.7,1.14-1.73,1.25-5.32,5-7.08,6.23-.06,11.72,2.11,14.85,8.65,3.53.55,7.16-.35,10.36,1.67,3.49-1.64,7-2.1,10.27-.89,6.52-5.69,7.69-14.38,12.91-20.58,2.32,1.27,1.63,3.13,1.09,4.5-.65,1.63-.38,3.28-.9,5.29-4,3.17-5.2,8.44-7.82,13.7,3.78,2.11,7.83,4,11,7.65,2.8-3.34,2.25-6.9,3.21-10,.74-2.37,1.13-4.84,1.76-7.24a5.78,5.78,0,0,1,5.31-4.69c5.05,2.19,8.21,7,11.73,11.7,1.74-2.86,3.39-6.06,6.92-4.82,2.25.76,2.77,2.4,4.44,3.31,1.64-2.54,1.61-6.14,4.54-7.8,3.64-2.17,6.05,2.15,9.51,1.71a19.56,19.56,0,0,0,4.09,6.3c1.59-2.29,1.77-5.32,4.18-7.11a6.15,6.15,0,0,1,4.7-.22c1.62.78,2.27,2.41,3.48,3.91,2.25-1.67,3.17-5.28,6.76-5s4.18,3.28,5.47,6.4c2.42-3,4-7.19,9.15-4.73,4.47,5.64,1.81,13.25,4.22,19.91a14.67,14.67,0,0,0,6.5.28c1.65-4.46,3.35-8.93,4.94-13.44.88-2.51,2.16-4.73,5-4.94,3.11-.24,4.43,2.17,5.93,4.52,2.58,4.05,5.26,8,5.29,13.25,5.82-1.49,6-9,11.92-10.07,2-.06,3.63,1.19,5.48,2,2.48-1,3.86-3.87,6.83-3.92,3.13-.08,4.49,2.36,6.22,4.87,2.76-2.6,5.72-4.45,9.31-2.1,2.85,1.86,6.29,3.12,7.29,7.17,1.53-1.28,1.75-2.77,2.39-4,1.21-2.31,2.61-4.57,5.65-3.88,2.79.63,3.63,2.93,4.15,5.61.7,3.59.45,7.27,1.13,11.13,4.43-1.58,7.55.13,9.5,3.63,6-.88,11.6-5.5,17.52.78,3.12-8.15,7.44-14.38,18.46-10.52,2.86,5.23,5.88,11.5,6.59,18.73.68,1.61,2.16,2.32,3.53,3.46a97.48,97.48,0,0,0,12.53-32.42c4,3.37.89,7.49,2.86,10.6-3.54,4.2-3.13,9.6-5.59,14.73l4.76-1.8,7.11,2.06c.69-.22,1.33-.4,2-.64,6.81-2.65,8.28-1.52,11,5.33a21.33,21.33,0,0,1,.13,15.88,3.11,3.11,0,0,0,.14,3.39c5.67-.85,9.16-8.71,15.74-5.94,3.12-1.25,3.84-5.5,8-5-1.79,3.59-2,7.61-5.33,10,.44,2.61,2.35,4.2,3.44,6.78,5.42-1.11,9.31,2.11,13.08,5.42,1.33,1.17,2.95,1.48,4.42,2.21,4.58,2.32,5.19,5.72,1.8,9.64-1.27,1.48-3.36,2.22-4,4.3,1.31,1,2.83,1,4.28,1.3,5.14,1.16,6.74,5.59,3,9.22-2.45,2.4-3.91,5.3-5.76,8.13a17.47,17.47,0,0,0,9.47,5.61c2.53.65,4.72,2,4.93,5s-1.91,4.4-4.33,5.42l-5.75,2.41c1.76,3.54,4.86,5.84,7,8.61a8.41,8.41,0,0,1,.35,3.59c-1,3-3.35,3-4.41,4.71,3.13,1,6.69.8,8.93,3.64a5.94,5.94,0,0,1,0,5.16c-3.51,3.42-8.76,3-13.2,4.91l2.4,3.66c.35,6.74-6.11,6.54-9.55,9.45-.59,1.44-.78,2.88.6,4,4.52,3.78,4.22,8.67,3.23,13.73-.12.65-.21,1.3-.33,2,4.86,2.72,12,.44,15.18,7.1-1.93,8-10.78,5.83-15.76,10.35,4.22,3.58,13.3,4.5,7,13,3.7,2.31,9.42.81,11.54,6.62-1.19,6.76-6.52,11.59-10.25,17.46,3.49,2.1,8.48.74,11,4.49,1.33,3.1-.2,5.37-1.72,7.86,1.55,1.49,3.82,2.14,5.14,5.09.84,2.49-.53,4.9-2.83,7.54-3.81,4.4-8.25,8-12.67,11.82,0,.13,0,.51.16.69,5.41,5.52,4.43,8.94-3,11.08-1.82.53-4.11.09-5.83,2.46,1.79,4.25,11,7.1,3.5,14,2.85,2.19,6.36,2.89,9.33,4.62,2.42,1.41,5.41,2.49,5.3,6-.1,3.3-2.58,4.8-5.35,5.88a8,8,0,0,0-1.26.83c-1.62,2.5-1.39,5.45-1.92,8.19-1.18,6.12-2,7-8.37,7.67-.82.09-1.65.13-2.48.2a5.41,5.41,0,0,0-.61,6c3.71,8.33,2.67,12.28-4.53,18.5-2.55,1-4.9.06-7.25-.78a28.81,28.81,0,0,1,.61-8.59c1.3-.72,2.44,1,3.78.23a4.76,4.76,0,0,0,1.26-4c-4.57-5.9-3-12.23.19-18.54a2,2,0,0,0,2.08-.9c2.12-.24,4.3.29,6.47-.52,2.41-4.43.92-10.23,5.15-14a41.24,41.24,0,0,0-7.41-3.6c-3.58-1.34-6.91-3.13-9.37-6.2a4.5,4.5,0,0,1,0-3.4l4.91-4.14c-2.71-4.75-2.43-9.46-.35-14.23l4.4-2.55c-.47-2.13-2.48-3.35-2.55-5.5.65-3.06,2.8-4.75,5.6-5.75a24.48,24.48,0,0,0,12.79-10.7c-4.7-2.27-7.18-5.54-4.82-10.86-5.22-1.45-10.93-.79-14.55-4.91-1.09-4.51,1-6.62,4.47-8.1,4.68-2,8.54-4.9,10.06-9.84-1-1.74-2.39-1.66-3.72-1.76a30.39,30.39,0,0,1-7.71-1.76c-4.25-1.46-4.6-2.07-4-7,1-1.64,2.67-2.71,4.43-4.15-7.55-3.55-4-9.08-3.61-12.92,1-2.94,3.56-2.81,4.11-5-3.27-.29-6.39-.79-8.08-3.9-2.66-5.35,6.1-7.8,3.09-13.43-1.79-1.79-4-3.64-4.4-7.38,1.35-1.81.69-4.59,1.23-6.85,1.16-1.93,2.78-3,4.32-4.23a13,13,0,0,1-4.24-4c-.3-5-.08-5.3,6.15-8.07-1-.38-1.87-.81-2.8-1.06-2.58-.68-4.7-1.74-4.67-4.91s2.31-4,4.76-4.9c3-1.11,6.28-1.54,9.32-3.47-4.18-4.12-12.29-.89-13.84-8.25,1.85-6.14,7.82-6.05,12.2-8.35-2.12-4.46-8.52-5.12-9.08-10,.43-4.18,4.46-6,4.52-9.87-2.81-1.26-5.77.05-8.42-.95a6.94,6.94,0,0,1-3.24-4.86c1.8-5,6.81-7.42,9.93-11.31-1.47-3.4-4.53-4.58-7.3-6.54h-5.6c-3.94-1.73-3.66-6.21-6.87-7.64-3.05-1.51-3.92,1.74-6,2.8-5.14-1-11.4,2.19-15.15-3.67a16.5,16.5,0,0,1,.84-8.29,48.76,48.76,0,0,0,1.85-6.69c.43-2.37-.56-4.45-1.65-6.23-1.93-.38-3.17,1.09-5.52.48l-5.36-1.57a36.65,36.65,0,0,1-8.24,8.88c-2.07,0-4.07.07-6.06,0-5.33-.23-11.59-4.65-12.33-9.88-.71-5-3.9-8.94-4.35-14.84-7.4,5.29-6.49,15.22-13.25,19.64-1.8.1-3.47.44-5-.51-3.28-2.29-1.42-6.26-2.75-9a4.43,4.43,0,0,0-4.53.62c-4.62,3.05-8.68,2.63-12-2.05-1.9,1.4-3.47,2.67-5.46,2.81-3.74.17-4.08-3.34-6-5.91-1.49,3.59-2.31,7.3-6.49,7.69-2.85.08-3.63-2.55-5.19-4.23-2.93,5.22-5.27,10.51-10.37,13.7-.91.53-1.68-.07-2.5-.32,0-1.92,1-3.44,1.86-5.07,3-5.6,7.48-10.25,10.5-16.38-1.64-2.53,2.08-7-2.86-8.9-2.06,1.45-3.19,3.44-4.94,4.29-4.5,1.39-6.13-1.94-8.56-4.9-3,4.09-6.86,1.53-9.36,1.38-6.8,4.09-8.58,12.41-16.2,14.11-6.87-4.42-4-12.52-7.73-18.17-2.86,4.43-2.33,10.4-7.52,12.75H921.87c-3.69-2-3.62-5.57-4.44-8.73-2.54.71-4,3.19-6.46,2.71-3.67-1.53-4.14-5-5.3-8.32-1.52,1.72-3,3.22-5.47,3.39a8.27,8.27,0,0,1-4.93-3.57c-1.88,4.34-2.51,9.33-7.57,8.64-4.29-1.42-4.47-4.88-6.1-7.61a15.76,15.76,0,0,1-6.16,7.05c-2.49,1.51-3.46,6.44-8.13,4a15.22,15.22,0,0,0-2.85-7.05c-3.23,4-3.23,4-7.52,4.53-5.57-2.73-3.7-10.13-8.14-14.1-1,2.12-1.77,3.63-1.74,5.3s-.73,3.23-1.09,4.84c-1.11,4.89-2.85,6.42-7.72,7-3.51.43-6.56-.34-9-3.15a12.22,12.22,0,0,0-9.36-4.64c-4.81,7.71-4.84,7.9-8.65,5.82l4.69-8.08c-2.24-.61-3.88,1.15-6.24.94-3.88-2.39-8.66-1.67-12.51-1.87-4.07-1.91-4.52-6.58-8.44-7.86-1.89,2.23-2.13,5-3.36,7.33-1.54,2.93-3.54,4.29-6.8,3.34-2.4-1.39-3.72-3.8-5.58-5.64-3.17-.36-6.35.42-9.24-.93-2.14,2.77-4,5.33-7.32,5.69-3.66-.43-4.17-4.21-6.67-5.8l-2.92,2.4c-3.68,1.62-5.49-.89-7.64-2.19-.49.75-1,1.13-1,1.56-.41,4.45-2.66,6.8-7.23,7.4a15.49,15.49,0,0,0-7.9,3.71,70.69,70.69,0,0,1-10.09-.13c-3.53-1.68-3-5.41-4.83-7.52-4.49,2.24-2.82,8.25-6.78,10.52a4,4,0,0,1-3.26-2c3.08-5.27,4.54-11.31,6.43-17.42-.23-.6-.73-1.19-2.16-1.06-.66,2.1-2.92,3.1-4.16,4.52-.67,2-1.25,3.55-1.71,5.14-1.62,5.61-6.29,8.37-11.07,9.69s-5.77-3.92-7.75-7c-.09-.13-.27-.2-.54-.39-2.12.42-4.35,1.26-6.2.57-2.79-1.22-3-3.95-5.12-6a7,7,0,0,1-5.08,4c-2.06.13-3.33-1.88-5.24-1.46-3.47,6.16-3.47,6.16-7.06,7.4-2.9.21-3.39-3.15-5.7-3.64-3.57,5.84-3.57,5.84-8.13,5.39-2.33-.42-2.17-3.26-4-4.09-4.33,4.4-7.25,9.89-12.28,14.15-3.86-4.06-5-9.05-7-13.43-4.56,1.66-7.68,6.27-12.16,4.73-3.45-1.6-3.38-5-6.05-6.86-1.56,4.19-4.65,4.23-8.15,3l-.1-.11c-.22-.18,0,0,.12.09-.6,3.36,1.63,7.51-2.26,9.59-3.61,1.29-6.25-.48-9-1.46-2.34,4-1.46,8.57-2.79,12.6-5.82,1-11.62,2.28-17.55,2.61,1.07-4.88,5-3,8.17-3.43,2.25-3.36,1.47-7.53,2.56-11,.18-1.84-.82-3.09-1.21-4.52-.64-2.4-.58-4.65,1.16-6.5s4.14-1.71,6.44-.83c1.07.42,2.16.8,3.24,1.2.24.36.5.68,1,.39C575,387.22,574.78,386.88,574.49,386.56Zm566.14,68.1.18-.24-.32,0Z" transform="translate(-436 -346)"/><path class="c" d="M1101.83,655.08l0-6.08c.08-.79,1.17-1.08,1-2l0-10c.23-12,.36-24.05-.13-36.07.18-5.89.46-11.78-.61-17.62a426,426,0,0,0-6.2-63c-2.36-13.11-5.36-26-11.94-37.84-2.46-4.42-5.27-8.82-9.87-11a98.8,98.8,0,0,0-22-7.64l0,.11c.06-.89-.58-.75-1.12-.77a8.68,8.68,0,0,0-4.49-1.38c-8.93-3.56-18.28-5.78-27.46-8.53l-2.48-.32a214,214,0,0,0-28.62-7.29,19.71,19.71,0,0,0-5.65-1.42q-25-5.78-50.37-9.57l-8.6-1.31c-20.54-3.34-41.2-5.53-61.91-7.4q-23.85-2.14-47.77-3.2c-14.63-.64-29.25-1.38-43.9-1a5.48,5.48,0,0,0-4.35-.06,383.94,383.94,0,0,0-44.36.44,31.18,31.18,0,0,0-7.9.14c-1.16-.06-2.32-.22-3.47-.18-17.41.61-34.81,1.43-52.19,2.63-2.93.2-5.89.34-7.22,1.48-16.06-.73-30.75,1.8-45.5,3-4.93.41-9.9.53-14.72,1.83-4-.38-8,.55-11.89,1.07-9.36,1.24-18.82,1.87-28.06,3.95-4.37-.19-8.57.85-12.8,1.74-1.82.28-3.75-.05-5.45.94-7.69,1-15.48,1.43-22.8,4.36-2.88-.22-2-2.29-2.13-3.86,2.51-1.69,5.37-1,7.83-2,3.27-.47,6.55-.89,9.81-1.42,8.17-1.32,16.34-2.68,24.52-4,5.64-.08,11.14-1.34,16.72-2,9.85-1.14,19.67-2.47,29.5-3.72,2.89-.33,5.85.14,8.68-.8,5.75-.49,11.49-1,17.24-1.46q16-1.44,32-2.92c3.92-.2,7.89.39,11.77-.66,16-.66,32.09-1.18,48.12-2.1,3.11-.18,6.83,1.16,9.08-2.24l1.95,1.22c1.32,1.53,3.08.74,4.62.74,9.43,0,18.86.05,28.29-.12,8.93-.15,17.85.55,26.78,0l11.49.45a122.4,122.4,0,0,0,18.76.57l44.17,2.94c3.18.08,6.27,1.11,9.48.85,11,1.24,22.11,2.22,33.09,3.78,10.73,1.53,21.55,2.24,32.19,4.5,8.42,1.78,17,2.93,25.43,4.52,9.6,1.79,19.16,3.75,28.73,5.64,1.71,1.37,3.92.88,5.8,1.61a732.19,732.19,0,0,1,77.69,23.11,29,29,0,0,1,14.36,11c4.93,7,7.76,15,10.16,23.16,4.36,14.86,6.36,30.16,8.32,45.47-.45,2.63.73,5.08.89,7.65l2,35.29c0,6.16-.25,12.32.63,18.44q.13,18.66.25,37.3a171.12,171.12,0,0,0-.8,25.61L1104,724.13a20.67,20.67,0,0,0-.66,7.71q-.39,5.58-.79,11.16c-.78,3.55-.44,7.17-.6,10.76,0,3-2,2.29-4.17,2V752c.13-2.79,1.41-5.54.27-8.37,1.26-1.22.76-2.81.86-4.26.46-6.63.88-13.27,1.32-19.91C1101.64,698,1102.53,676.55,1101.83,655.08Z" transform="translate(-436 -346)"/><path class="c" d="M1129.89,671.32a4.5,4.5,0,0,0,0,3.4c-1.1,7-.77,14.16-.78,21.25a5,5,0,0,0-.25,3.81c-1.11,7.46-.75,15-1.12,22.5a28.81,28.81,0,0,0-.61,8.59c-.91,1.54-2.21,1-3.37.68-1.07-.8-.55-1.89-.73-2.81a23.59,23.59,0,0,0,.67-8.65q.33-6.57.67-13.13c.91-3.59.47-7.24.41-10.87,1.56-20.39,1.28-40.83,1.91-61.25.59-19-.27-37.9-.91-56.84-.6-17.75-1.48-35.51-4-53.13.46-2.75-.59-5.3-1.07-7.92,0-.75-.08-1.51-.11-2.26l.15-.41-.3-.31c-.51-3.45-.91-6.92-1.54-10.35-2.33-12.58-5.22-25-10.62-36.71-4.13-9-10.43-14.83-20.23-16.7a6.12,6.12,0,0,0-3.65-1.29c-3.66-2-7.69-3-11.58-4.3-41.68-14.33-84.46-24.18-127.87-31.4q-29.73-4.94-59.74-7.8c-10.07-1-20.12-2.46-30.28-2.32-2.49-.53-5-1.2-7.54-.7-9.14-.64-18.27-1.6-27.45-1.33a41.85,41.85,0,0,0-13.53-.67c-9.13-.26-18.26-.73-27.39-.75-14.31,0-28.61.15-42.91.37-17.11.26-34.21.82-51.27,2.26-2.28-.24-4.56-.49-6.79.36-18.8.92-37.55,2.58-56.25,4.74-3.87.33-7.76.45-11.55,1.42-10.77.68-21.43,2.35-32.09,3.95-2.36.35-5.06-.61-7.12,1.37-4.18-.38-8.14,1.27-12.24,1.41-3.73.13-6.81,2.93-10.65,2.3-1.82-.56-1.66-2.07-1.78-3.45,2.1-1.77,4.86-.86,7-2.05,5.93-.33,11.73-1.59,17.55-2.61,12.86-1.64,25.7-3.4,38.57-4.89,19.49-2.26,39-4,58.59-5.44q36.31-2.62,72.72-3.34c26.29-.52,52.59-.28,78.87.91,21.92,1,43.81,2.47,65.64,4.74,20.18,2.09,40.3,4.52,60.3,7.95q17.67,3,35.32,6.09c.82.25,1.59.85,2.5.32.26.21.49.54.78.6,19.14,4,38.09,8.77,57,13.9l3.83,1.09c16,5,31.91,10.27,47.73,15.85,8.82,3.12,14.59,8.82,18.62,16.91,4.85,9.76,7.56,20.18,9.74,30.77,6.32,30.75,7.83,62,8.85,93.23.7,21.31.54,42.65.18,64C1130,658.7,1130,665,1129.89,671.32Z" transform="translate(-436 -346)"/><path class="b" d="M548.14,417.83c3.84.63,6.92-2.17,10.65-2.3,4.1-.14,8.06-1.79,12.24-1.41.2,2.32-1,3.76-3,4.67-1.4.63-3-.3-4.42.69.16,1.94.7,3.89,0,5.92-1.21,2.13-3.19,3.16-5.78,3.61-3.37-.83-6.72-3.49-10.59-1.34,0,1.77,1.88,2.54,1.72,4.18-8.18,1.35-16.35,2.71-24.52,4-3.26.53-6.54.95-9.81,1.42.54-5.5,1.2-6,8.61-6.54,1.55-7.92,3.09-8.86,10.1-6.21.14-.27.46-.61.39-.8-1-2.61-1.54-5.24.83-7.35s5.26-1.47,7.92-.21C544.33,417,546,418.15,548.14,417.83Z" transform="translate(-436 -346)"/><path class="b" d="M1123.71,720.09a23.59,23.59,0,0,1-.67,8.65c-3.55.69-6.38-1.16-9.22-2.73-1.58,1-2.09,2.18-1.07,3.8,1.14,1.82,2.19,3.7,3.27,5.56,1.45,2.47,2.54,5,1.78,7.82-3.64,6.2-8.65,10-15.84,10.57.16-3.59-.18-7.21.6-10.76,2.66,2.06,3.62,1.72,6.51-2.48-1.4-3.14-2.43-6.62-5.72-8.68a20.67,20.67,0,0,1,.66-7.71,4.71,4.71,0,0,0,2-2.11c3.19-5.51,5.48-6.29,11.11-3.41A13.25,13.25,0,0,0,1123.71,720.09Z" transform="translate(-436 -346)"/><path class="d" d="M748,805a23.91,23.91,0,0,1,.75-7.3c-1.61-1.08-2.91-.86-4.38.72-.28,3.63-.75,7.59-4.21,10.34-1.63-.13-2.25-1.88-3.36-2.27-2.64-1.1-10.51,1.25-12.17,3.56-2.44,3.4-2.9,7.72-5.1,11.94-4.14-7.44.25-17.46-7.56-22.74-3.51.29-4.87,2.26-5.93,4.66a55.75,55.75,0,0,0-3,10.48c-.59,2.69-1.58,5-4.33,6.07-4.76-3.87-7.09-9.57-10.39-14.44-4.13-6.08-9.12-7.58-15.66-6.8-2.37,2.12-3.45,5-5.05,7.37-1.85.88-3.74.18-5.71.64-2.34,1-3.72,3.37-5.87,5.72-5.22-6.71-7.06-15.95-14.9-19.82-5,.42-5.58,4.4-7.45,7.42-1.34-1.55-2.39-3.24-4.37-4.36-3.84-.8-5.18,2.19-6.79,5.16-1.44-3.8-.5-8.88-5.67-10.21-3.89.45-5.66,3.46-7.54,5.63-2,.64-3.29-.48-4.7-.61-6.77,1-6.31,8.26-10.37,12.39-2.68-5.55-.32-12.54-5.73-16.34-4.1-.5-6,1.7-7.54,4.78-1.26,2.5-1.79,5.73-5.38,7-1.52-5.36.58-12.47-7-14-5.81,2.54-5.3,8.52-7.89,12.55-1.61-.46-2.24-2.22-5.07-2.48-1.52,0-3.6,1.1-5,3.58-3.54-6.49-7.39-12.44-12.77-17-2.41,1.68-1.74,4.17-4,5.26-1.39-5-5.71-8.09-7.41-12.18a9.73,9.73,0,0,0-5.58-.43c-3.36,1.73-4.28,5.11-6.09,8.38-1.58-.61-2.84-2.08-4.16-2.26-4.08.08-5,3.9-7.69,5.72-2.2-4,0-10.15-6.44-11.45,1.22-3.32,3.76-6.23,2.15-10.28-.77-1.28-2.37-1.74-4.19-2.32-5.07,1.66-10.6.62-15.81,2.4a12.54,12.54,0,0,0-7.14-6.7,23.29,23.29,0,0,1,9.15-8.45,8.2,8.2,0,0,0,4.38-5.69c-.65-3.46-2.79-5.21-6.15-5.58s-5.3-3.25-7.94-4.89c-1.08-.67-1-2-.67-3.36,4.71-3.48,12.73-3.06,13.86-11-2.6-4.43-5.22-5.66-10.5-4.37-4.15,1-8.28.42-12.42.63a3,3,0,0,1-3-2c1-2.52,4.54-3.78,4.61-7.15-.79-4-4.14-5.21-7.61-6.47L452.21,695c3.2-4.58,3.2-4.58,2.89-11.91.37-1.36,1.65-2.07,2.33-3.19a30.39,30.39,0,0,0,1.43-3c.31-2.56-1.23-4-1.53-5.93,4.87-2.31,10.74-1.93,14.3-6.13a6.55,6.55,0,0,0-.28-5.1c-7.3-5.57-19-7-21.42-18.76,2.27-2,5.38-2.53,7-6.45.55-3.69-1-8-3.38-12.06,3.69-1.59,8.37-.91,11-4.68,1.17-3,0-5.28-2.59-7.18,2.4-2,5.59-2.38,6.86-5.56,1-4.67-3.21-5.57-6.82-7.65a25.73,25.73,0,0,0,6.93-2c3.71-8.12,2.94-10.6-3.65-16.94-2.71-2.61-4.78-5.91-8.1-8.12-.61-3.21.41-6.58-1.17-10,4.17-.46,8-.79,11-3.38,4,.43,7.67-.78,11.37-1.26a8.32,8.32,0,0,0,3.4-3.63c.76-1.69-1-3.15-.5-4.67,1.58-2.44,4.25-.67,6.26-2,.07-2.58-1.38-3.71-3.95-3.57.21-2.27.77-4.21,0-6.47-2.32-3.61-7.43-3.68-10.54-7,1.2-3.61,7.06-3.17,6.53-9l-1.1-2.85c1.35-1.49,3.24-1.33,4.3-2A6.3,6.3,0,0,0,484.5,508c2.61.34,4.72-.44,7.25-2.54,1.86,9,3.6,17.2,5.83,25.31,3.29-.94,4.63-3.09,3-6.1-2.33-4.32-1.83-9-2.42-13.49-.89-6.71-3.66-13.06-3.58-19.94,0-1-.94-2.07-1.6-3.44l5.94-2.7c2.6,2.1,3.38,5.77,7,7.68,6.92,1.88,5.54-5.07,7.62-8.54,2.67-.34,4.78,1.46,7.49,1.68,2-.18,4.6-.9,5.16-2.94,1.41-5.1,5.51-9.08,5.8-14.57.08-1.36.2-2.68,2.26-3.32,4.89,5.79,3.32,15.62,11.4,19.89,8.67-3.11,3.75-10.91,5.78-16.24,1.61.08,2.19,2,3.78,2.11,2,.52,3.42-1.11,5.41-1.36,2.21,3.94,2.93,8.8,6.48,12,2.55.94,4.68.71,6.33-1.66,2.6-7.9,1-16.28,2.32-24.84a22.89,22.89,0,0,0,16,10.85c1.75-.27,3.35-1.48,5.08-2.83,3.44,1.62,7,3,9.63,5.72a12.39,12.39,0,0,0,5.91,0c3-2,2.09-5.62,3.92-8.18a19.56,19.56,0,0,1,5.62,3.78c3.94,3.56,6.06,3.55,10.56.11,2,2.43,2.51,5.74,4.63,8,1.63.92,3.3.59,4.93.47,2.68-1,3.67-4.59,6.84-4.16,2.41-3.66,3.54-7.66,7-10.29,2.56,3.25,1.85,8.11,5.19,10.95a5,5,0,0,0,2.4.62c8.78,1.25,8.84,1.29,12.8-6.7,1-2,2.64-3.41,3.74-5.26s.9-4.36,3.84-5.79c2.5-.31,5.87-.53,7.7-3.69,6,4.3,6.27,12,10.27,16.9a8.39,8.39,0,0,0,5.83.13c2-1.64,2.31-4,2.74-6.23,2.33.12,2.08,2.83,4,3,4.68.78,6.79-.54,7.57-5.11a47.48,47.48,0,0,1,1.7-7.17c2.49.61,2.79,2.56,3.33,4.21.82,2.52,1.4,5.11,2.2,7.64,1,3.16,3,5.09,6.8,5,3.49-1.54,3.32-5.14,4.36-8.21s.07-6.69,2.78-9.66c4.11,4.74,1.51,13.41,9.06,15.83,4.65-1.09,9.43-1.51,12.36-5.89,2.73.28,5.23,1.8,8.37.45,2.75-1.37,2.69-5,4.39-7.76,1.86-.31,3.2,1.71,5,1.25,1.93.06,2.74-1.87,4.21-2.36,2.39,5.49-.13,12.78,6.49,16.34,3.42-1.06,3.42-1.06,9-8.41l4.61-1.53c3.86,2,7.29.74,10.19-1.83,1.41.46,1.58,1.59,2.22,2.32,6.94,7.8,18.39,6.73,23-2.64,1.62-3.27,5.32-4.5,6.63-7.71,2.81-.12,3.23,1.5,3.38,3.53a53.15,53.15,0,0,0,2.05,10.2c.73,2.57,2.19,4.44,5.31,4.93,7.52-2.78,5-11.58,9.63-16.73,2.7,6.15.27,13.68,4.94,18.46a12.15,12.15,0,0,0,5,.42c5.09-3.59,10-7.13,14.13-12.14,2.3,3.88,1.67,7.8,3.52,11.1.86,1.15,2.33,1.52,3.3,2,2.57.16,3.82-1.91,5.81-2.21.86,9.23,1.21,10,5.51,12.22,3.59-1.24,3.59-1.24,6.69-5.52,1.33,2.25,1.76,5.38,6,5.2,2.51-.54,4.16-2.88,5.06-5.93,1.4-4.74,2.79-9.47,4.33-14.68,2.71,1.51,5.4.79,8.19,1.34.85,4,.81,8.32,3.84,11.53a3.5,3.5,0,0,0,3.2,1.14c5.15-1.82,5.91-8.08,11.22-9.59.39,4.63.51,9.09,5.2,11.55,5.11-.28,6.36-4.44,7.89-8.56,1.95.24,2.62,2.25,4.51,2.59,3.07.81,5.32-1.54,7.84-3.05,5,1.92,9.68,3.84,10.41,10.11.24,2,2,3.39,3.6,4.55,3.32,1.54,6.13-1.36,8.6-.72,5.47-2.35,5.57-7.83,8.63-11.84,4.85,5,.54,11.81,4.08,16.63a6.22,6.22,0,0,0,3.54,2.25c1.74.2,2.87-1.18,4.67-1.25.15,2.17.85,4.16,3.12,5.26,2.72.65,4.58-1.23,7-2.79,3,3.45,6.5,3.71,10.48,1.4,1.58-.92,3.51-.73,5.5.15.22,3.35.13,7,4,9a40.74,40.74,0,0,0-8.61,7.88,9,9,0,0,0,.15,5.13c1.59,1.74,3.83,1.3,5.11,2.83-.32,7.25,5.18,10.72,18.8,11.77a4,4,0,0,1-1.88,3.31c-4.61,2.53-7,7.43-11.42,10.19-2.64,1.65-3.07,3.87-2.79,8.46.71,1.77,2.58,2.58,3.25,3.76.82,1.58-.92,2.54.54,4.46,5.41-1.18,11.26.08,17.31.79a9,9,0,0,1,4.45,7.27c-6.11,3.41-14,3.45-18.67,9.19.81,5.87,2.34,6.78,12.07,7.55.25,1.86-2.18,2.42-2,4.33,1,3.79,1,3.79,6.25,6.77-1.53,5.07-8.47,7.36-7.21,14,2.9,4.52,8.34,4.16,13.24,6.46-3.37,3.35-7.54,3.72-11.05,5.29-4.2-1.86-5.32-6.54-8.79-8.75a5,5,0,0,0-2.63,2.89c4.06,4.4,7,9.65,10,15.09-2.44,2.44-6.18,3.71-6.66,7.78.49,2.55,2.21,4.28,4.61,5.49-.75,2.24-2.71,3.67-2.83,6,.48,2.44,2.8,3.42,4.56,5.08-1.65,1.82-4.52,1.38-6.18,3.61-.82,1.44-.52,3.23-.18,5.23,3.94,3.51,6.18,8.8,11.65,11.14,1.88.81,3.22,3.29,4.4,5.26a25.64,25.64,0,0,0,7.47,7.69,9.47,9.47,0,0,1-6.65,9.39c-2.66,1-5.45,1.66-6.82,4.63a30.17,30.17,0,0,0,2.2,12.93c-.59,1.45-2,2.09-3,3.12-5.52.95-11.19-.89-16.47,1.84a6.42,6.42,0,0,0-2,4.37c2.74,5.76,9.29,6.33,14.23,9.94-3.28,3.59-8.41,2.84-11.49,6-2.84,8-2.84,8-2,11.36-2,2-6.25,2.19-5.65,6.84,2.65,4.83,8.06,6.66,13.28,9.85-3.31,1.43-5.6-.17-7.93-.66-5.19-1.09-7.11-.35-9.35,3.9.38,6.08,7.43,8.83,7.89,15.4-5.19.15-8.86,2.22-10.4,7.14a2.19,2.19,0,0,1-.61.79c-3.17,3.2-7.51,5.39-8,10.73-2.86-1.21-4.11-3-5.54-4.45a40.5,40.5,0,0,1-1.67-9,2.59,2.59,0,0,0-3-.44c-1.07.81-.59,2.24-1.12,3-1.57,1.09-3.18.23-5.51,1.3l-3.21,2.46a13.41,13.41,0,0,0-10.94,0c-2.88-.56-5.17-3-8.81-1.56-2.91,1-2.9,4.79-5,7.64-5.54-4-4.28-12-10.32-16.38-7.48,1.94-15.58,3.57-22.2,9.23-2.7,5.89-1.87,12.51-3.48,19.15-4.48-3.65-3.71-11.41-10.7-11.1-2,.47-2.78,2.25-4.3,2.8-2-.59-2.77-2.53-4.4-3.45-4.84-.62-6.29.55-7.77,5.18-1.14,3.6-.08,7.68-2.35,10.9-5.79.83-5.87.64-8.06-4.14-1.71-3.72-2.23-8.1-5.69-10.85-5.3-.74-7.34.87-7.75,6.76-.17,2.52-.82,4.9-1.18,7.35-.07.47-.26,1-1.25,1-2.07-3.8-2.64-8.19-3.84-12.4-1.08-3.79-1.91-8-6.84-8.93-1.86.24-3.2,1.58-4.79,2.51-2.16-.35-2.89-2.7-4.83-3.44-5-.33-6.73,1.21-7.33,6.79-.23,2.12.26,4.37-1.55,6.4-1.71-1.18-3.62-2.08-5.82-1.32-1.69.6-2.22,2.4-3.78,3.63-1.78-3-1.44-6.85-4.19-9.36a7.26,7.26,0,0,0-5.13-.17c-1.93,1.26-2.16,3.38-3.14,5.39-2.05-2-1.93-5.65-6.68-6.57-6.17,1.69-10.84,6.21-11.87,14.53-5.9-2.86-4-10.76-9.59-13.43-5.23-.27-6.23.74-7.91,8.35-2.57-4.25-1.86-9.26-3.94-13.2-3.3-1.31-3.33,1.19-3.83,3-4.9-2.32-5.82-1.46-10,1.9-4.44,3.56-5.76,8.19-7,13.43a7,7,0,0,0-6.07-1.72c-4,1.24-4.22,6-8.35,6.5-2.63-6.34-1.24-13.81-5-19.72-9-2.48-12.39-3.82-15.85,7l-5.25-1.43L748,805Zm7-121.09,0,.08c-3.85.54-6.75,2.92-9.72,4.78-.31,1.27-.3,2.21.69,3.06,3.25.16,5.63-1.8,8-3.79a294,294,0,0,1-9.65,34l-24.3-73.85H695.71L671.38,722l-.92-.26q-9.83-36.74-19.67-73.59H619q17.47,58.67,34.79,116.76h30.67l2.91-2.75c-1.48-3.33.6-6.06,1.58-9,6.13-18.22,12.27-36.43,18.83-55.88l22.88,67.45h31.16C773.41,726,785,687.23,796.62,648.18H764.93q-4.68,17-9.34,34.05C754.84,682.57,754.94,683.25,755,683.88ZM520,629l.08.09c.26.22.09.07-.09-.07-.07-2-1.18-3.42-2.32-4.86a87.23,87.23,0,0,1-11.85-19.95c-1.91-4.43-3.79-8.86-5.71-13.37-3.95,1.18-3.81,3.9-2.41,6,2.3,3.42,2.86,7.37,4.17,11.07.73,2.06,1.57,4.39,2.89,5.6,3.09,2.83,4.58,6.38,6.1,10.07C514.11,625.11,515.71,629.23,520,629Zm82.07,22.42c-7.49-2.77-15.06-5.19-23.05-6.08a56.47,56.47,0,0,0-21.27,1.3c-20.76,5.61-29.49,24.16-26.31,44.23,1.52,9.58,7.24,16.22,15.78,20.56a99.57,99.57,0,0,0,12,4.73c5,1.76,10.15,3.17,14.85,5.73,2.86,1.55,5.2,3.48,5.92,7,1.28,6.2-2.41,11.65-9.2,13.1-9.47,2-17.67-1.27-25.38-6.33-2.16-1.42-4.18-3-6.58-4.79-4.39,8.27-8.58,16.13-12.85,24.14a62,62,0,0,0,16.89,9c13.84,5.12,28,5.32,42.21,2-.57,2.69-3.46,3.2-5,4.83a4,4,0,0,0,2.87,2.92,50.07,50.07,0,0,0,5.9-3.31,20.73,20.73,0,0,0,7-9.33c.77-.63,1.49-1.32,2.31-1.87,17.66-12,22.17-50-5.48-61.92a142.3,142.3,0,0,0-15.43-5.62c-3.81-1.15-7.68-2.24-10.92-4.75-5-3.88-5.08-10.08,0-13.92,4.13-3.15,8.87-3.44,13.78-2.54,5.7,1,10.5,4,15.38,7.35,3.73-7.25,7.3-14.34,11-21.35.84-1.58.31-2.44-.74-3.4,4.13-8.46,6-17.48,7.09-27.82,1.86-1.47-1.32-4.54.12-7.13H636.7V501.32H606.2V546c-11.34,0-22.14.06-33,0-3.46,0-7,.58-10.39-.43.42-1.44-.18-3,.86-4.77,2.3-.8,3.64-3.17,5.35-5.15,3.45-4,3.44-4,3.13-6-3.35.7-5.62,3.7-9.17,4.68,0-9.72,0-19.05,0-28.37,0-1.59.67-3.34-.65-4.77H532.78V617.62h29.9V570.31h43.79v47c1.27,1.06,2.52.52,3.61.84-1.21,8.07-2.63,16-5.66,23.73C603.27,644.8,601.7,648,602.07,651.41Zm325.07,76.83c-3.62,1.23-5.15,4.71-8.07,6.9,2.48,1.44,2.48,1.44,4.91,1.71,1.21-.81,1.63-2.5,3.13-3v31h30.61V726.1c3.37,0,6.18,0,9,0,7.14-.17,14.3.56,21.39-1,13.92-3.1,23-11.27,26.73-25.16,1.57-5.86,1.53-11.87,1.21-17.85-.89-16.61-10.67-28.41-26.76-32.4A58.32,58.32,0,0,0,975.46,648q-18.72-.06-37.44-.16c-9.88-9.27-16.67-21.17-26.28-30.87a2.57,2.57,0,0,0-2.57,2.2c2.57,4.32,6.22,8.17,8.88,12.71a28.78,28.78,0,0,0,7.91,9c2.19,1.59,4.84,3.61,5,7-1.07.36-2.35-.24-3.6,1v4.65q0,27.42,0,54.84C927.37,715,927.23,721.6,927.14,728.24ZM884,684.88c1.47-1,.91-2.29.63-3.56-2.29-10.27-1.61-20.5-.15-30.84.72-5,2.77-9.71,3.37-14.61a3,3,0,0,0-2.4-1c-3.91,3.22-2.85,7.14-4.14,10.29-2.25,5.48-3.57,11-2.46,17,.29,1.59,1.26,4.15-1.7,5l-7.49-19H836.51L792.17,764.74h32.32c2.31-6.49,4.55-12.75,6.78-19a8.61,8.61,0,0,1,3.37-.73c7.82,0,15.64,0,23.45,0,4.33,1.38,6.43,5.84,10.44,8,1.34-3.79-3.68-4.66-2.46-8.14h8.37c3.36,6.31,4.53,13.47,7.53,19.86h32.16c-5-13.06-9.88-25.72-14.61-38.44C894.38,712.48,888.7,698.87,884,684.88ZM758,577.19c-1.68-2.7-2.48-5.77-3.56-8.7-4.74-12.88-10.18-25.49-14.38-38.57,3.8-2,6.36-5.27,8.54-8.89.72-1.2,2.23-2.21.45-3.87-2.58,1.06-5,2.14-6.78,4.61-1.12,1.6-2.68,3.1-5,1.49-2.88-7.39-5.77-14.78-8.59-22H695.47c-14.79,38.89-29.5,77.58-44.25,116.35,11.1,1.4,21.56.31,32.24.26l7.09-20.09h43.2l7,19.92H773l-13.21-35.8c5.19-1.65,7.92-6.77,13-9.11-.3-3,3.66-4.27,3.59-7.79-3,.46-4.87,2.32-6.81,4A63.29,63.29,0,0,1,758,577.19Zm60.79-44.27-21.51-31.56H761.05c1.32,2,2.32,3.47,3.36,4.95,12.2,17.45,24.36,34.93,36.68,52.29a11.88,11.88,0,0,1,2.35,7.36c-.09,15.66-.06,31.32,0,47,0,1.61-.5,3.34.52,4.76H834v-56c14.21-20.2,28.22-40.14,42.61-60.59H840.32C833.21,511.65,826.14,522.07,818.78,532.92Zm210.83,38.82c.86-3.9,1.48-7.44.59-11.3a20.82,20.82,0,0,1,0-8.43c1.13-5.87.23-11.84,1.1-17.65.54-3.66-.26-7.16-.06-10.7.41-7.3,3.7-14.43,1.76-21.85-.71-2.72,1.49-6-1.79-8.64-2.25,6.4-2.13,12.7-2.81,18.93s.41,12.73-2.43,18.75c.08,1.9,1,3.64.73,5.78-1.49,10.75-.49,21.57-.64,32.36C1026.07,571,1026.93,572.19,1029.61,571.74ZM981,773.15c2.63,3.32,5.05,1.83,6.57-.43,2.59-3.84,6.32-6.23,9.83-8.94a24.37,24.37,0,0,0,5.39-6.28,29.62,29.62,0,0,1,6.16-6.94c3.57-3,5-7.35,6.91-11.35a1.88,1.88,0,0,0-1.07-2.84C1004.93,749.83,992.35,760.81,981,773.15ZM476,652.12c.28,4.46,3.38,8,4.56,12.28,2,7.35,9.59,11.11,13,17.82a19.84,19.84,0,0,1,7.24,3.64c1.23-.33,1.82-.83,2-2.54-11-8.09-18-19.77-23.44-32.13A3.19,3.19,0,0,0,476,652.12Zm501-138.26c-1.48-1-2.54-1-3.57-.24-4.15,9.29-1.69,17.94,3,26.85,2.71.72,4.06,5.21,9.35,5.1-3.26-5.31-7.63-9.43-8.46-14.89A66.83,66.83,0,0,1,976.93,513.86ZM708.07,612a58,58,0,0,0,8.56,25l7.87,6.94c.89-.17,1.46-.72,1.28-1-5.9-9.84-11.16-20-14.1-31.14-.06-.25-.48-.41-.78-.64A3.09,3.09,0,0,0,708.07,612ZM944.7,594.8c-3.11,1.48-3.33,3.46-2.14,5,1.82,2.32,2.34,5.11,3.6,7.61.91,1.8,1.84,3.73,3.57,4.69,3,1.66,4.95,4.4,7.82,6.81,1.81-1.49,3,.66,4.71,1s3.9,2.22,4.61-1.81C955.82,614,950.19,604.51,944.7,594.8Zm103.46,128.26c-9.34-7.88-12.05-18.61-13.64-29.65-1.44-.49-2.54-.59-3,.15-2.11,9.72,2,17.45,6.88,25.53C1041.39,719.34,1043,724.35,1048.16,723.06Zm-30.07-80.54c-2.25-11.65-.08-22.61-2.67-33.3-1.18-.07-2.17-.4-3,.51-1.71,8-.66,16.14.12,24.92C1014.34,636.17,1013.19,640.71,1018.09,642.52Zm44-29.22c-4.57,8.49-11,15.41-17.26,22.29,1.27,1.56,2.23,2.35,4.2,1.95,2.23-4,7.33-5.47,9.42-10.64C1060.26,622.45,1064.57,619,1062.11,613.3ZM878.8,560.53c.64,9.14,1.94,17.52,5.71,25.33,1.7-.36,2.71-.82,3.16-1.64-.16-6-2.08-11.38-3.25-17.51C880.92,566.62,883.5,561.17,878.8,560.53ZM657.46,525l4.76,3c3.58-3.23-.94-4.87-1.09-7.07-.58-3.24.43-6.44-.61-9.5-1.7-.47-3.13-.65-4.3,1.41,0,1.94-.73,4.13-1.4,7C657,520.65,656.83,523,657.46,525ZM513.16,770.47c5.77-3.38,11.79-4.33,16.61-7.73-.14-1.94-1.19-2.71-2.7-3.63-1.49,1-3.49.87-5.69,1.19C519.41,763.77,513.43,763.89,513.16,770.47Zm409-202c2.71-2.15,3.55,3,6.43.35,0-2.15-2-3.34-2.47-5.21-.53-2.73.4-5.58-.57-8.2a4.28,4.28,0,0,0-4.31.34c.26,2.1-1.55,4-1,7.18C921.15,563.84,922.34,565.39,922.11,568.51ZM486.93,687.84c-2.85,1.1-2.76,3.9-4.77,6-1.33,1.15-3.78,1.71-6.17,3.07,1,1.38.84,3.3,3,3.85l6.49-2.13a14.15,14.15,0,0,1,2.5-4.69C487.71,692,488.59,690,486.93,687.84Zm320.52,81.38c-9.48,2.31-11.28,3.77-10.58,9.11,4.26-2.34,9-3.13,12.82-5.94C809.62,770.81,808.61,770.18,807.45,769.22Zm-12.8-146.51c2.15,1.24,4.05,1.93,6.51.28-2.46-2.1-2.11-4.86-2.41-7.25a4.15,4.15,0,0,0-4-.46C792.86,617.66,793.13,620.09,794.65,622.71ZM570.58,598.66c-1.22-3,0-6.12-.84-9.1-4.31-.33-5.1.71-4.91,6.26C566.74,596.49,567.44,599.39,570.58,598.66Z" transform="translate(-436 -346)"/><path class="d" d="M550.05,436.12c9.24-2.08,18.7-2.71,28.06-3.95,3.93-.52,7.86-1.45,11.89-1.07-.68,3.61-4.7,4.95-5.69,8.35,3,1.88,4.74,1.45,6.65-2.19,1.74-3.33,4.26-4.11,7.69-3.52,2.05.35,4.18.73,5.54,0,1.78-1.9-1.9-3.15.53-4.46,14.75-1.25,29.44-3.78,45.5-3,1.33-1.14,4.29-1.28,7.22-1.48,17.38-1.2,34.78-2,52.19-2.63,1.15,0,2.31.12,3.47.18-.21,2.09-2.88,1.83-3.54,3.66.93.91,1.61,2.09,3.53,2,1.82-1,3.65-2.65,6.12-3.15a2.45,2.45,0,0,0,1.79-2.62,383.94,383.94,0,0,1,44.36-.44,17.53,17.53,0,0,0,3.71,11c2,2.48,2.95,5.52,3.79,8.62L768.45,450c-7-3.85-9,3.24-13.86,6.38-2-8.9-4.63-17.17-15.42-18.26-4.21,1.49-3.84,6-5.56,9.2a31.56,31.56,0,0,1-6.62-9.22c-1.09-2.27-2.72-4.24-5.74-4-4.28,1.6-4.59,5.64-5.59,9.26-1.51-1-1.46-3.12-3.72-4.2a8.85,8.85,0,0,0-4.58.18c-2.58,2.61-2.69,6.06-3.81,9.23a14.2,14.2,0,0,1-5.69-6.86c-1.46-3.52-4-5.18-7.87-4.55-2.8,1.26-3.92,3.95-5.43,6.45l-7.67,1.95c-2.46,5.55-6.42,10.63-9.59,16.47-2.53-1.75-2.54-4.42-3.22-6.67-1.15-3.79-1.85-7.72-3.06-11.49-1.31-4.11-2.82-4.87-8.08-4.45-4.4,7.09-3.46,17.31-11.31,23.34-3-4.47-2.6-10.64-7.39-13.61-5-.35-6.57,2.91-7.74,6.57-3.63-.12-4.6-2.88-5.86-5.37-1.64-3.23-3.5-6.22-8-5.13-5,2.7-3.5,8.13-5.19,12.4-3.5,1.57-4.7-2.08-7.23-3.35-1.55-.5-3.37-.29-5.41-.15l-3.41,2.6c-5.88-.27-6.71-6.38-10.74-9.3-3.61-.37-7.32-2.34-11.41-1-3.95,4.06-1.41,9.29-2.67,14.23-3-2.94-6.27-3.91-9.7-.53-2.52-3.63-3.63-7.95-8.18-10.08-6.05,1.27-5,6.81-6.1,11.6-2.18-3.95-6.73-4.38-9.17-7.53H529c-1.79.71-2.62,2.17-3.59,3.67-3.17-2.52-4.66-5.92-7.25-8.79,2.44-2.3,5.62-3.78,5-7.19,2.86-2.09,7,1.35,8.62-3,1.7-1,3.63-.66,5.45-.94,3.16.26,5.44,3.11,8.74,3C548.28,440.08,550.39,439.16,550.05,436.12Z" transform="translate(-436 -346)"/><path class="d" d="M931.89,434.68q25.38,3.76,50.37,9.57c2,2.87-.58,5.53-.53,8.32,3.65-.14,5-1.67,6.18-6.9a214,214,0,0,1,28.62,7.29c-5.68,4.82-9,11.29-12,18.28-5.11-10.41-13-15.12-25-15.2-1.45-1.36-1.62-5.74-5.9-5.86-3.54-.06-4.63,3-6.37,5.75-1.65-2.34-2.73-4.69-5.32-5.81-5.23.13-6.91,6.36-12,7.34-1.49-2.15-1.07-5.08-2.81-7.64-.91-1-2.68-1-4.23-1.62L938.48,450c-8.82-5.12-10.42-4.13-14.07,8.55-2,.41-2.48-2-4.23-2.35-3.19-.08-3.19-.08-6.62,1.53-1.17-3.66.35-8.15-3.27-11a4.54,4.54,0,0,0-4-.69c-2.4.81-2.74,2.8-4.54,3.74-1.39-2.34-1.64-5.53-5.59-7-6.94,1.95-10,10-16.62,13.82a15.41,15.41,0,0,1-1.55-5.26c-.88-10.37-2.58-11.79-13-11.21-2.82.84-3,3.87-4.89,5.55-3.44-4.49-7-8.75-13.57-8.84-4.19,5-9.72,8.87-12.13,15.08a9.16,9.16,0,0,1-4.13,2c-1.84.07-3.2-.89-4.65-1.86-2.23-3.4-2-8.76-7.75-9.85-3.58.4-5.13,3.81-7.37,6.59-5-.15-9.78,1-14.73,2.16-2.27-5.45-1-11.77-4.76-16.45a7.58,7.58,0,0,0-5.51-.33c-2.52,1.81-2.58,5.32-5.12,7.75-5.16-6.11-8.09-13.1-10.7-20.26,14.65-.38,29.27.36,43.9,1q23.91,1.05,47.77,3.2c20.71,1.87,41.37,4.06,61.91,7.4,1.13,4.86,7.09,5.75,8.22,10.34,3.36.75,6.48,2.6,10-.31-4.29-2.63-8.51-4.09-11.16-7.9Zm-45.24,6.77c2.05-6.22,1.88-7.13-1.89-9.37A34.36,34.36,0,0,1,879.1,442a4.9,4.9,0,0,0,3.94,1.9Z" transform="translate(-436 -346)"/><path class="d" d="M1102.82,647c.2.92-.89,1.21-1,2-5.55-3.26-12.1-3.11-18.37-5.34a12.74,12.74,0,0,0,.42-5.72c-.61-1.77-2.48-2.62-3.4-4.28,2.39-1.74,4.48.52,7.19.13.94-4.1-5.48-6.1-3.12-10.77,2.87-2.31,8-1.58,10.3-5.92a52.43,52.43,0,0,0,0-9c-1.77-4.41-5.95-4.69-9.3-6,.14-3.69,2.9-4.92,5.24-6.31,2.66-1.58,4.3-3.55,4.19-6.61-1.28-3-3.84-4.24-6.69-5.52,1.27-2.23,3.61-3.71,3.56-6.73-1.13-2.52-3.25-4.07-7-4.31,3.64-2.9,8.43-2.33,10.84-6.25a9.57,9.57,0,0,0,0-5.11,60.72,60.72,0,0,1-10.06-11c-1.13-1.67-3.19-2.29-5.31-2.32-1.47,0-3,.19-4.1-1.5-.16-2.3,2.3-2.94,3.4-5,.63-2.8,1.7-6,1.38-9.29,2.84-3.83,9.31-3.91,9.88-10.07-1.72-4.43-5.88-4.65-9.78-5-2.81-.28-5.66-.06-8.49-.1-1.46,0-3.05.33-4.24-1.4,2.07-3.68,7.12-4.09,9.62-9.1.48-1.44,0-3.66-2.65-5.21-2.39-.62-4.9-.07-7.37-.3l0,0c1-2.08,3.32-3.29,3.68-6-.21-4.49-4.56-4.8-7.42-6.51.61-6,0-7.09-5.56-9.37-4.77,1.16-4.77,1.16-9.51-.91,1.33-4.71,3.13-9.36,2.89-14.4a98.8,98.8,0,0,1,22,7.64c4.6,2.16,7.41,6.56,9.87,11,6.58,11.79,9.58,24.73,11.94,37.84a426,426,0,0,1,6.2,63c-.47,4.06.39,8.19-.33,12-2.33,1.61-5,1.32-7.06,2.47-1.19,2-.66,3.22,1.64,4.23,1.78-1,4.07-1,6.36-1.12.49,12,.36,24.05.13,36.07-1.15-.36-.54-1.84-1.73-2.48-.74,1.16-2.48,1.25-3.24,3.56C1100.34,640.23,1100.05,644.35,1102.82,647Z" transform="translate(-436 -346)"/><path class="d" d="M1101.83,655.08c.7,21.47-.19,42.91-1.59,64.33-.44,6.64-.86,13.28-1.32,19.91-.1,1.45.4,3-.86,4.26-1.17-3.42-4.45-3.5-7-4.68-5.17,2-11,2.54-12.67,8.41a7.75,7.75,0,0,1-4.8.56l-5.88-5.23c6.16-4.06,13.45-5.34,18.63-9.24a9.48,9.48,0,0,0,.49-5.73c-1.8-3-5.29-3.61-8.3-5.22,4.85-2.56,9.93-4.77,12-9.36.53-4.85-4.82-6.9-3.13-11.83,5.4-1.25,8.13-6.26,12.07-10.32.76-3.14,2.12-6.39,1.35-10-.13-.26-.21-.65-.45-.84A57.1,57.1,0,0,1,1087.44,666c-1.73-2.61-5.43-3.1-7.79-6.49,4.29-.54,8.08-1.19,11.9-1.47S1098.78,657.38,1101.83,655.08Z" transform="translate(-436 -346)"/><path class="d" d="M1019,453.28c9.18,2.75,18.53,5,27.46,8.53-4.43,2.36-6,7.26-9.3,11-1.7-2.6-1.55-6.43-6-6.66l-3.7,1.45c-.32-.29-.94-.56-1-.93-.42-2.5-2.11-4.08-3.87-5.6A9,9,0,0,1,1019,453.28Z" transform="translate(-436 -346)"/><path class="d" d="M512.2,465.68c4,.47,7.48,2.06,11.92,1.11-1.76,3.8-3.15,6.83-4.78,10.35C514.79,474.48,515.35,469,512.2,465.68Z" transform="translate(-436 -346)"/><path class="d" d="M495,474c1.68-2.22,3.31-4.46,3.31-7.4l5.34.76c.71,3,.13,5.94.4,8.87-2,.1-2.52-1.9-4.59-2.17H495Z" transform="translate(-436 -346)"/><path class="d" d="M495,474c-.07,1-.23,2-1.67,2.42-.6-1.63,0-2.36,1.61-2.48Z" transform="translate(-436 -346)"/><path class="d" d="M1068,501c-.14.17-.28.34-.15.19-.15.12,0,0,.18-.16Z" transform="translate(-436 -346)"/><path class="d" d="M1051,463.19c.54,0,1.18-.12,1.12.77Z" transform="translate(-436 -346)"/><path class="d" d="M748,805l.13-.2L748,805Z" transform="translate(-436 -346)"/><path class="d" d="M980.92,415.74q-17.65-3-35.32-6.09c-20-3.43-40.12-5.86-60.3-7.95-21.83-2.27-43.72-3.74-65.64-4.74-26.28-1.19-52.58-1.43-78.87-.91q-36.39.72-72.72,3.34c-19.57,1.42-39.1,3.18-58.59,5.44-12.87,1.49-25.71,3.25-38.57,4.89,1.33-4,.45-8.56,2.79-12.6,2.8,1,5.44,2.75,9,1.46,3.89-2.08,1.66-6.23,2.26-9.59l0,0c3.5,1.27,6.59,1.23,8.15-3,2.67,1.89,2.6,5.26,6.05,6.86,4.48,1.54,7.6-3.07,12.16-4.73,2,4.38,3.16,9.37,7,13.43,5-4.26,8-9.75,12.28-14.15,1.81.83,1.65,3.67,4,4.09,4.56.45,4.56.45,8.13-5.39,2.31.49,2.8,3.85,5.7,3.64,3.59-1.24,3.59-1.24,7.06-7.4,1.91-.42,3.18,1.59,5.24,1.46a7,7,0,0,0,5.08-4c2.09,2,2.33,4.75,5.12,6,1.85.69,4.08-.15,6.2-.57.27.19.45.26.54.39,2,3.08,3,8.31,7.75,7s9.45-4.08,11.07-9.69c.46-1.59,1-3.15,1.71-5.14,1.24-1.42,3.5-2.42,4.16-4.52,1.43-.13,1.93.46,2.16,1.06-1.89,6.11-3.35,12.15-6.43,17.42a4,4,0,0,0,3.26,2c4-2.27,2.29-8.28,6.78-10.52,1.87,2.11,1.3,5.84,4.83,7.52a70.69,70.69,0,0,0,10.09.13,15.49,15.49,0,0,1,7.9-3.71c4.57-.6,6.82-3,7.23-7.4,0-.43.51-.81,1-1.56,2.15,1.3,4,3.81,7.64,2.19l2.92-2.4c2.5,1.59,3,5.37,6.67,5.8,3.28-.36,5.18-2.92,7.32-5.69,2.89,1.35,6.07.57,9.24.93,1.86,1.84,3.18,4.25,5.58,5.64,3.26.95,5.26-.41,6.8-3.34,1.23-2.32,1.47-5.1,3.36-7.33,3.92,1.28,4.37,5.95,8.44,7.86,3.85.2,8.63-.52,12.51,1.87,2.36.21,4-1.55,6.24-.94l-4.69,8.08c3.81,2.08,3.84,1.89,8.65-5.82a12.22,12.22,0,0,1,9.36,4.64c2.44,2.81,5.49,3.58,9,3.15,4.87-.6,6.61-2.13,7.72-7,.36-1.61,1.12-3.11,1.09-4.84s.78-3.18,1.74-5.3c4.44,4,2.57,11.37,8.14,14.1,4.29-.49,4.29-.49,7.52-4.53a15.22,15.22,0,0,1,2.85,7.05c4.67,2.48,5.64-2.45,8.13-4a15.76,15.76,0,0,0,6.16-7.05c1.63,2.73,1.81,6.19,6.1,7.61,5.06.69,5.69-4.3,7.57-8.64a8.27,8.27,0,0,0,4.93,3.57c2.45-.17,3.95-1.67,5.47-3.39,1.16,3.29,1.63,6.79,5.3,8.32,2.5.48,3.92-2,6.46-2.71.82,3.16.75,6.76,4.44,8.73h14.24c5.19-2.35,4.66-8.32,7.52-12.75,3.76,5.65.86,13.75,7.73,18.17,7.62-1.7,9.4-10,16.2-14.11,2.5.15,6.39,2.71,9.36-1.38,2.43,3,4.06,6.29,8.56,4.9,1.75-.85,2.88-2.84,4.94-4.29,4.94,1.88,1.22,6.37,2.86,8.9-3,6.13-7.5,10.78-10.5,16.38C981.9,412.3,980.93,413.82,980.92,415.74Z" transform="translate(-436 -346)"/><path class="d" d="M1041.15,430.56c-18.86-5.13-37.81-9.93-57-13.9-.29-.06-.52-.39-.78-.6,5.1-3.19,7.44-8.48,10.37-13.7,1.56,1.68,2.34,4.31,5.19,4.23,4.18-.39,5-4.1,6.49-7.69,1.93,2.57,2.27,6.08,6,5.91,2-.14,3.56-1.41,5.46-2.81,3.29,4.68,7.35,5.1,12,2.05a4.43,4.43,0,0,1,4.53-.62c1.33,2.7-.53,6.67,2.75,9,1.49.95,3.16.61,5,.51,6.76-4.42,5.85-14.35,13.25-19.64.45,5.9,3.64,9.84,4.35,14.84.74,5.23,7,9.65,12.33,9.88,2,.09,4,0,6.06,0a36.65,36.65,0,0,0,8.24-8.88l5.36,1.57c2.35.61,3.59-.86,5.52-.48,1.09,1.78,2.08,3.86,1.65,6.23a48.76,48.76,0,0,1-1.85,6.69,16.5,16.5,0,0,0-.84,8.29c3.75,5.86,10,2.67,15.15,3.67,2.09-1.06,3-4.31,6-2.8,3.21,1.43,2.93,5.91,6.87,7.64h5.6c2.77,2,5.83,3.14,7.3,6.54-3.12,3.89-8.13,6.26-9.93,11.31a6.94,6.94,0,0,0,3.24,4.86c2.65,1,5.61-.31,8.42.95-.06,3.9-4.09,5.69-4.52,9.87.56,4.9,7,5.56,9.08,10-4.38,2.3-10.35,2.21-12.2,8.35,1.55,7.36,9.66,4.13,13.84,8.25-3,1.93-6.33,2.36-9.32,3.47-2.45.91-4.73,1.71-4.76,4.9s2.09,4.23,4.67,4.91c.93.25,1.8.68,2.8,1.06-6.23,2.77-6.45,3.05-6.15,8.07a13,13,0,0,0,4.24,4c-1.54,1.24-3.16,2.3-4.32,4.23-.54,2.26.12,5-1.23,6.85.36,3.74,2.61,5.59,4.4,7.38,3,5.63-5.75,8.08-3.09,13.43,1.69,3.11,4.81,3.61,8.08,3.9-.55,2.15-3.16,2-4.11,5-.34,3.84-3.94,9.37,3.61,12.92-1.76,1.44-3.39,2.51-4.43,4.15-.65,4.89-.3,5.5,4,7a30.39,30.39,0,0,0,7.71,1.76c1.33.1,2.7,0,3.72,1.76-1.52,4.94-5.38,7.84-10.06,9.84-3.46,1.48-5.56,3.59-4.47,8.1,3.62,4.12,9.33,3.46,14.55,4.91-2.36,5.32.12,8.59,4.82,10.86a24.48,24.48,0,0,1-12.79,10.7c-2.8,1-5,2.69-5.6,5.75.07,2.15,2.08,3.37,2.55,5.5l-4.4,2.55c-2.08,4.77-2.36,9.48.35,14.23l-4.91,4.14c.07-6.31.11-12.62.21-18.93.36-21.33.52-42.67-.18-64-1-31.25-2.53-62.48-8.85-93.23-2.18-10.59-4.89-21-9.74-30.77-4-8.09-9.8-13.79-18.62-16.91-15.82-5.58-31.74-10.82-47.73-15.85a34.77,34.77,0,0,1,6-5.53c-.31-2.44,1-4.31,3.06-6.27-2-1.69,0-4.63-2.18-7-3.13,4.19-4.24,9.14-7.56,12.83C1043.1,427,1041.23,428.33,1041.15,430.56Z" transform="translate(-436 -346)"/><path class="d" d="M1129.12,696c0-7.09-.32-14.2.78-21.25,2.46,3.07,5.79,4.86,9.37,6.2a41.24,41.24,0,0,1,7.41,3.6c-4.23,3.81-2.74,9.61-5.15,14-2.17.81-4.35.28-6.47.52l-.14-.16c.24-2.79,2.87-3.71,4.52-5.68C1135.09,691.17,1132.45,694.93,1129.12,696Z" transform="translate(-436 -346)"/><path class="d" d="M1127.75,722.28c.37-7.5,0-15,1.12-22.5l4.14.24,0,0c-3.18,6.31-4.76,12.64-.19,18.54a4.76,4.76,0,0,1-1.26,4C1130.19,723.27,1129.05,721.56,1127.75,722.28Z" transform="translate(-436 -346)"/><path class="d" d="M1135.06,699.08a2,2,0,0,1-2.08.9l0,0c.31-.93,1.07-1.09,1.91-1.1Z" transform="translate(-436 -346)"/><path class="a" d="M574.49,386.56c.29.32.51.66.22,1.11-.49.29-.75,0-1-.39Z" transform="translate(-436 -346)"/><polygon class="a" points="704.63 108.66 704.49 108.4 704.82 108.42 704.63 108.66"/><path class="d" d="M585,389c-.17-.13-.34-.27-.12-.09l.1.11Z" transform="translate(-436 -346)"/><path class="d" d="M1123.71,720.09a13.25,13.25,0,0,1-6.61-1.48c-5.63-2.88-7.92-2.1-11.11,3.41a4.71,4.71,0,0,1-2,2.11l2.34-54.49c1.71-5-.42-10.42,1.08-14.87,3.27-2.78,6.51,2.92,9.71-.55-3.73-3.64-7.94-5.85-10-10.19q-.12-18.64-.25-37.3c.32-7.46.56-7.78,6.8-9.19,4.78-5.39,4.78-5.39,4.58-8.17-4.25.22-6.75,4.69-10.82,5-1.13-2.26.36-4.42-1.19-6.12l-2-35.29c1.87-.25,2.46-2.54,4.75-2.37-.63-2.38,1.59-4.17.4-6.21-2.64-1.28-3.17,2-5,2.06l-1.08-1.13c-2-15.31-4-30.61-8.32-45.47-2.4-8.15-5.23-16.12-10.16-23.16a29,29,0,0,0-14.36-11,732.19,732.19,0,0,0-77.69-23.11c1.45-2.69,3.75-4.69,6-6.77-1.52-1.21-2.64-2.2-4.81-1.47-1.49,2.66-5.64,3.1-7,6.63-9.57-1.89-19.13-3.85-28.73-5.64-8.46-1.59-17-2.74-25.43-4.52-10.64-2.26-21.46-3-32.19-4.5-11-1.56-22.05-2.54-33.09-3.78-6.89-4.76-11.68-10.89-12.71-19.48,10.16-.14,20.21,1.34,30.28,2.32q30,2.9,59.74,7.8c43.41,7.22,86.19,17.07,127.87,31.4,3.89,1.34,7.92,2.32,11.58,4.3-5.65,3.89-12.84,3.38-18.76,6.68.25,1.16.13,2.56,1.49,3.26a45,45,0,0,0,18.79-5c.35-.93,2-1.83,2.13-3.66,9.8,1.87,16.1,7.74,20.23,16.7,5.4,11.74,8.29,24.13,10.62,36.71.63,3.43,1,6.9,1.54,10.35-.07.08-.23.21-.21.24a5.46,5.46,0,0,0,.36.48c0,.75.07,1.51.11,2.26-2.89-.24-3.12,2.51-4.74,4a10.09,10.09,0,0,1-3,8.83c2.31,2.22-.66,6.11,3.09,8.49,1-3,1.83-5.58,2.79-8.14.71-1.89.39-4.39,2.92-5.3,2.55,17.62,3.43,35.38,4,53.13.64,18.94,1.5,37.89.91,56.84-.63,20.42-.35,40.86-1.91,61.25-4.75,1.53-9.61.85-14.36.46-.57,1.87-.44,3.22,1.17,4.15l12.09,1.71c.25,1.66.47,3.11.69,4.55Q1124,713.53,1123.71,720.09Zm-18.14-232.75c-5.34,14.12-5.74,22.8-1,26.45,1.49-8.94,2.52-17.77,5.12-26.18A5.2,5.2,0,0,0,1105.57,487.34Zm17,123.92a120.6,120.6,0,0,1-10.28,12.11,4.37,4.37,0,0,0,3.14,2.5c1.28-1.42,3.32-2.1,5.24-3.35a13.48,13.48,0,0,1,3.31-4.58C1123.69,616,1124.62,613.93,1122.54,611.26Z" transform="translate(-436 -346)"/><path class="d" d="M684.83,402.28c17.06-1.44,34.16-2,51.27-2.26,14.3-.22,28.6-.41,42.91-.37,9.13,0,18.26.49,27.39.75,2.92,1.56,6.43-.45,9.49,1.33-1.72,5.86-4.63,10.88-7.12,16.49H795.22l-11.49-.45c-4.83-1.62-9.87,0-14.79-1-1.48-.73-.75-3.38-2.81-3.55-2.39.13-1.74,2.7-3.67,3.94H724L722.09,416c-2.25,3.4-6,2.06-9.08,2.24-16,.92-32.08,1.44-48.12,2.1-.21-.26-.63-.7-.59-.74,2.09-2.39,3.63-5.6,6.91-6.41a12.73,12.73,0,0,0,7.23-5.48C680.2,405.16,683,404.34,684.83,402.28Zm15.39,13.55c-1.4-2.52-1.26-4.83-1.36-7-1.26-1.12-2.37-2.07-4.4-1.47-.11,1.51-2.24,2.08-2.16,4.13C694.29,413.51,694.85,417.87,700.22,415.83Z" transform="translate(-436 -346)"/><path class="d" d="M621.79,407.38c18.7-2.16,37.45-3.82,56.25-4.74.13,3.45-3.28,2.22-4.85,3.51-6.42,5.28-13.83,9.25-20.07,14.82q-16,1.47-32,2.92c-5.75.51-11.49,1-17.24,1.46-.47-.36-1.29-.32-1.37-1.5a74.57,74.57,0,0,0,11.31-13.57c3.16,2.5,6.85,2.49,9.48,5.65,1.75,2.1,5.15,3.07,9,2.55-1.18-3.14-3.34-4.69-5.66-6.16C624.71,411.05,622,410.41,621.79,407.38Z" transform="translate(-436 -346)"/><path class="d" d="M819.93,401.07c9.18-.27,18.31.69,27.45,1.33l2.47,1.29c.46,4.9,1.72,9.7,6,13.23a5.82,5.82,0,0,1,2.29,4.81L814,418.79C816.94,413.21,819.86,407.62,819.93,401.07Z" transform="translate(-436 -346)"/><path class="d" d="M549,431.85c.16-1.64-1.73-2.41-1.72-4.18,3.87-2.15,7.22.51,10.59,1.34,2.59-.45,4.57-1.48,5.78-3.61.67-2,.13-4,0-5.92,1.41-1,3-.06,4.42-.69,2-.91,3.16-2.35,3-4.67,2.06-2,4.76-1,7.12-1.37,10.66-1.6,21.32-3.27,32.09-3.95-3.54,2.63-6.15,6.24-8.55,9.75-1.93,2.81-5.73,3.91-6.44,7.6-9.83,1.25-19.65,2.58-29.5,3.72C560.17,430.51,554.67,431.77,549,431.85Z" transform="translate(-436 -346)"/><path class="b" d="M595.25,426.15c.71-3.69,4.51-4.79,6.44-7.6,2.4-3.51,5-7.12,8.55-9.75,3.79-1,7.68-1.09,11.55-1.42.24,3,2.92,3.67,4.91,4.94,2.32,1.47,4.48,3,5.66,6.16-3.86.52-7.26-.45-9-2.55-2.63-3.16-6.32-3.15-9.48-5.65a74.57,74.57,0,0,1-11.31,13.57c.08,1.18.9,1.14,1.37,1.5C601.1,426.29,598.14,425.82,595.25,426.15Z" transform="translate(-436 -346)"/><path class="b" d="M653.12,421c6.24-5.57,13.65-9.54,20.07-14.82,1.57-1.29,5-.06,4.85-3.51,2.23-.85,4.51-.6,6.79-.36-1.87,2.06-4.63,2.88-6.39,5.4a12.73,12.73,0,0,1-7.23,5.48c-3.28.81-4.82,4-6.91,6.41,0,0,.38.48.59.74C661,421.36,657,420.77,653.12,421Z" transform="translate(-436 -346)"/><path class="b" d="M819.93,401.07c-.07,6.55-3,12.14-5.95,17.72a122.4,122.4,0,0,1-18.76-.57h13.55c2.49-5.61,5.4-10.63,7.12-16.49-3.06-1.78-6.57.23-9.49-1.33A41.85,41.85,0,0,1,819.93,401.07Z" transform="translate(-436 -346)"/><path class="b" d="M858.15,421.73a5.82,5.82,0,0,0-2.29-4.81c-4.29-3.53-5.55-8.33-6-13.23l-2.47-1.29c2.58-.5,5,.17,7.54.7,1,8.59,5.82,14.72,12.71,19.48C864.42,422.84,861.33,421.81,858.15,421.73Z" transform="translate(-436 -346)"/><path class="b" d="M604.72,429.27c-2.43,1.31,1.25,2.56-.53,4.46-1.36.74-3.49.36-5.54,0-3.43-.59-5.95.19-7.69,3.52-1.91,3.64-3.69,4.07-6.65,2.19,1-3.4,5-4.74,5.69-8.35C594.82,429.8,599.79,429.68,604.72,429.27Z" transform="translate(-436 -346)"/><path class="b" d="M931.89,434.68l-1.52.82c2.65,3.81,6.87,5.27,11.16,7.9-3.54,2.91-6.66,1.06-10,.31-1.13-4.59-7.09-5.48-8.22-10.34Z" transform="translate(-436 -346)"/><path class="b" d="M1106.27,588.29c1.55,1.7.06,3.86,1.19,6.12,4.07-.35,6.57-4.82,10.82-5,.2,2.78.2,2.78-4.58,8.17-6.24,1.41-6.48,1.73-6.8,9.19C1106,600.61,1106.24,594.45,1106.27,588.29Z" transform="translate(-436 -346)"/><path class="b" d="M724,417.19h38.42c1.93-1.24,1.28-3.81,3.67-3.94,2.06.17,1.33,2.82,2.81,3.55,4.92,1,10-.65,14.79,1-8.93.59-17.85-.11-26.78,0-9.43.17-18.86.16-28.29.12C727.12,417.93,725.36,418.72,724,417.19Z" transform="translate(-436 -346)"/><path class="b" d="M1107.15,644c2,4.34,6.26,6.55,10,10.19-3.2,3.47-6.44-2.23-9.71.55-1.5,4.45.63,9.85-1.08,14.87A171.12,171.12,0,0,1,1107.15,644Z" transform="translate(-436 -346)"/><path class="b" d="M1102.71,600.89c-2.29.1-4.58.13-6.36,1.12-2.3-1-2.83-2.27-1.64-4.23,2.06-1.15,4.73-.86,7.06-2.47.72-3.85-.14-8,.33-12C1103.17,589.11,1102.89,595,1102.71,600.89Z" transform="translate(-436 -346)"/><path class="d" d="M1103.35,731.84c3.29,2.06,4.32,5.54,5.72,8.68-2.89,4.2-3.85,4.54-6.51,2.48Q1103,737.42,1103.35,731.84Z" transform="translate(-436 -346)"/><path class="b" d="M987.07,441c1.36-3.53,5.51-4,7-6.63,2.17-.73,3.29.26,4.81,1.47-2.26,2.08-4.56,4.08-6,6.77C991,441.9,988.78,442.39,987.07,441Z" transform="translate(-436 -346)"/><path class="b" d="M721,422.15a2.45,2.45,0,0,1-1.79,2.62c-2.47.5-4.3,2.16-6.12,3.15-1.92.12-2.6-1.06-3.53-2,.66-1.83,3.33-1.57,3.54-3.66A31.18,31.18,0,0,1,721,422.15Z" transform="translate(-436 -346)"/><path class="b" d="M550.05,436.12c.34,3-1.77,4-4.06,4.73-3.3.12-5.58-2.73-8.74-3C541.48,437,545.68,435.93,550.05,436.12Z" transform="translate(-436 -346)"/><path class="b" d="M1103.4,545.35l1.08,1.13c1.79-.05,2.32-3.34,5-2.06,1.19,2-1,3.83-.4,6.21-2.29-.17-2.88,2.12-4.75,2.37C1104.13,550.43,1103,548,1103.4,545.35Z" transform="translate(-436 -346)"/><path class="b" d="M1102.82,647c-2.77-2.65-2.48-6.77-5-9,.76-2.31,2.5-2.4,3.24-3.56,1.19.64.58,2.12,1.73,2.48Z" transform="translate(-436 -346)"/><path class="b" d="M987.91,445.67c-1.19,5.23-2.53,6.76-6.18,6.9-.05-2.79,2.53-5.45.53-8.32A19.71,19.71,0,0,1,987.91,445.67Z" transform="translate(-436 -346)"/><path class="b" d="M1088,450.21c-.1,1.83-1.78,2.73-2.13,3.66a45,45,0,0,1-18.79,5c-1.36-.7-1.24-2.1-1.49-3.26,5.92-3.3,13.11-2.79,18.76-6.68A6.12,6.12,0,0,1,1088,450.21Z" transform="translate(-436 -346)"/><path class="b" d="M1121.76,524.87c-2.53.91-2.21,3.41-2.92,5.3-1,2.56-1.78,5.17-2.79,8.14-3.75-2.38-.78-6.27-3.09-8.49a10.09,10.09,0,0,0,3-8.83c1.62-1.53,1.85-4.28,4.74-4C1121.17,519.57,1122.22,522.12,1121.76,524.87Z" transform="translate(-436 -346)"/><path class="b" d="M1041.15,430.56c.08-2.23,1.95-3.52,3.15-4.86,3.32-3.69,4.43-8.64,7.56-12.83,2.21,2.35.14,5.29,2.18,7-2.09,2-3.37,3.83-3.06,6.27a34.77,34.77,0,0,0-6,5.53Z" transform="translate(-436 -346)"/><path class="b" d="M1124.38,707c-.22-1.44-.44-2.89-.69-4.55l-12.09-1.71c-1.61-.93-1.74-2.28-1.17-4.15,4.75.39,9.61,1.07,14.36-.46C1124.85,699.72,1125.29,703.37,1124.38,707Z" transform="translate(-436 -346)"/><path class="b" d="M1134.92,698.92c-.84,0-1.6.17-1.91,1.1l-4.14-.24a5,5,0,0,1,.25-3.81c3.33-1,6-4.8,10.32-2.73C1137.79,695.21,1135.16,696.13,1134.92,698.92Z" transform="translate(-436 -346)"/><path class="b" d="M1120.58,514.69a5.46,5.46,0,0,1-.36-.48s.14-.16.21-.24l.3.31Z" transform="translate(-436 -346)"/><path class="c" d="M755.59,682.23q4.67-17,9.34-34.05h31.69C785,687.23,773.41,726,761.83,764.77H730.67l-22.88-67.45C701.23,716.77,695.09,735,689,753.2c-1,2.91-3.06,5.64-1.58,9l-2.91,2.75H653.8Q636.48,706.8,619,648.16h31.78q9.87,36.92,19.67,73.59l.92.26,24.33-73.81h24.22l24.3,73.85a294,294,0,0,0,9.65-34,5.53,5.53,0,0,0,1-4l0-.08A1.26,1.26,0,0,0,755.59,682.23Z" transform="translate(-436 -346)"/><path class="c" d="M562.86,545.53c3.42,1,6.93.4,10.39.43,10.81.1,21.61,0,33,0V501.32h30.5V618.16H613l-2.93,0c-1.09-.32-2.34.22-3.61-.84v-47H562.68v47.31h-29.9V501.2h29.56c0,11.16,0,22.32.09,33.48C562.48,538.3,561.85,542,562.86,545.53Z" transform="translate(-436 -346)"/><path class="c" d="M759.77,581.9,773,617.7H740.8l-7-19.92h-43.2l-7.09,20.09c-10.68,0-21.14,1.14-32.24-.26,14.75-38.77,29.46-77.46,44.25-116.35h33.25c2.82,7.22,5.71,14.61,8.59,22,.72,2.3,1.28,4.66,2.74,6.66,4.2,13.08,9.64,25.69,14.38,38.57,1.08,2.93,1.88,6,3.56,8.7A9.91,9.91,0,0,0,759.77,581.9Zm-61.17-7.44h27.12c-4.48-12.8-8.83-25.19-13.56-38.69C707.45,549.22,703.09,561.64,698.6,574.46Z" transform="translate(-436 -346)"/><path class="c" d="M831.27,745.74c-2.23,6.25-4.47,12.51-6.78,19H792.17L836.51,648.2h33.18l7.49,19c2.09,6,4,12,6.85,17.68,4.67,14,10.35,27.6,15.49,41.41,4.73,12.72,9.64,25.38,14.61,38.44H882c-3-6.39-4.17-13.55-7.53-19.86-.28-.15-.56-.42-.85-.42q-20.05-.06-40.13-.05C832.49,744.4,831.41,744.33,831.27,745.74Zm34.8-25.49c-4.14-12.14-8.29-24.28-12.81-37.54-3.78,10.77-7.6,20.38-10.4,30.36-2,2.51-1.9,5.67-2.87,8.77,8.09,0,16,0,23.86,0C865.12,721.83,865.12,721.78,866.07,720.25Z" transform="translate(-436 -346)"/><path class="c" d="M938,647.83q18.72.09,37.44.16a58.32,58.32,0,0,1,13.81,1.68c16.09,4,25.87,15.79,26.76,32.4.32,6,.36,12-1.21,17.85-3.71,13.89-12.81,22.06-26.73,25.16-7.09,1.57-14.25.84-21.39,1-2.8.06-5.61,0-9,0v38.67H927.11v-31a12.92,12.92,0,0,0,0-5.57c.09-6.64.23-13.28.24-19.92q.06-27.42,0-54.84v-4.65c1.25-1.22,2.53-.62,3.6-1Zm19.86,54.07c5.81-.14,11.1.46,16.35-.9,6.84-1.78,10.23-6.36,10.16-14s-3.7-12.46-10.46-13.77c-5.21-1-10.51-.82-16-.45Z" transform="translate(-436 -346)"/><path class="c" d="M605.8,653.11c1.05,1,1.58,1.82.74,3.4-3.75,7-7.32,14.1-11,21.35-4.88-3.34-9.68-6.31-15.38-7.35-4.91-.9-9.65-.61-13.78,2.54-5.05,3.84-5,10,0,13.92,3.24,2.51,7.11,3.6,10.92,4.75a142.3,142.3,0,0,1,15.43,5.62c27.65,11.88,23.14,49.94,5.48,61.92-.82.55-1.54,1.24-2.31,1.87L585.12,766c-14.26,3.3-28.37,3.1-42.21-2A62,62,0,0,1,526,755c4.27-8,8.46-15.87,12.85-24.14,2.4,1.75,4.42,3.37,6.58,4.79,7.71,5.06,15.91,8.36,25.38,6.33,6.79-1.45,10.48-6.9,9.2-13.1-.72-3.47-3.06-5.4-5.92-7-4.7-2.56-9.85-4-14.85-5.73a99.57,99.57,0,0,1-12-4.73c-8.54-4.34-14.26-11-15.78-20.56-3.18-20.07,5.55-38.62,26.31-44.23a56.47,56.47,0,0,1,21.27-1.3c8,.89,15.56,3.31,23.05,6.08A7.55,7.55,0,0,0,605.8,653.11Z" transform="translate(-436 -346)"/><path class="c" d="M818.78,532.92c7.36-10.85,14.43-21.27,21.54-31.77h36.29c-14.39,20.45-28.4,40.39-42.61,60.59v56H803.94c-1-1.42-.51-3.15-.52-4.76,0-15.65-.07-31.31,0-47a11.88,11.88,0,0,0-2.35-7.36c-12.32-17.36-24.48-34.84-36.68-52.29-1-1.48-2-3-3.36-4.95h36.22Z" transform="translate(-436 -346)"/><path class="b" d="M1029.61,571.74c-2.68.45-3.54-.78-3.51-2.75.15-10.79-.85-21.61.64-32.36.3-2.14-.65-3.88-.73-5.78,2.84-6,1.75-12.52,2.43-18.75s.56-12.53,2.81-18.93c3.28,2.64,1.08,5.92,1.79,8.64,1.94,7.42-1.35,14.55-1.76,21.85-.2,3.54.6,7,.06,10.7-.87,5.81,0,11.78-1.1,17.65a20.82,20.82,0,0,0,0,8.43C1031.09,564.3,1030.47,567.84,1029.61,571.74Z" transform="translate(-436 -346)"/><path class="b" d="M981,773.15c11.32-12.34,23.9-23.32,33.79-36.78a1.88,1.88,0,0,1,1.07,2.84c-1.93,4-3.34,8.38-6.91,11.35a29.62,29.62,0,0,0-6.16,6.94,24.37,24.37,0,0,1-5.39,6.28c-3.51,2.71-7.24,5.1-9.83,8.94C986.08,775,983.66,776.47,981,773.15Z" transform="translate(-436 -346)"/><path class="b" d="M884,684.88c-2.84-5.68-4.76-11.71-6.85-17.68,3-.81,2-3.37,1.7-5-1.11-6,.21-11.56,2.46-17,1.29-3.15.23-7.07,4.14-10.29a3,3,0,0,1,2.4,1c-.6,4.9-2.65,9.57-3.37,14.61-1.46,10.34-2.14,20.57.15,30.84C884.94,682.59,885.5,683.92,884,684.88Z" transform="translate(-436 -346)"/><path class="b" d="M520,629c-4.29.24-5.89-3.88-9.14-5.43-1.52-3.69-3-7.24-6.1-10.07-1.32-1.21-2.16-3.54-2.89-5.6-1.31-3.7-1.87-7.65-4.17-11.07-1.4-2.09-1.54-4.81,2.41-6,1.92,4.51,3.8,8.94,5.71,13.37a87.23,87.23,0,0,0,11.85,19.95c1.14,1.44,2.25,2.9,2.32,4.86Z" transform="translate(-436 -346)"/><path class="b" d="M476,652.12a3.19,3.19,0,0,1,3.4-.93c5.44,12.36,12.44,24,23.44,32.13-.22,1.71-.81,2.21-2,2.54a19.84,19.84,0,0,0-7.24-3.64c-3.41-6.71-11-10.47-13-17.82C479.33,660.12,476.23,656.58,476,652.12Z" transform="translate(-436 -346)"/><path class="b" d="M938,647.83l-7,0c-.2-3.39-2.85-5.41-5-7a28.78,28.78,0,0,1-7.91-9c-2.66-4.54-6.31-8.39-8.88-12.71a2.57,2.57,0,0,1,2.57-2.2C921.35,626.66,928.14,638.56,938,647.83Z" transform="translate(-436 -346)"/><path class="b" d="M976.93,513.86a66.83,66.83,0,0,0,.33,16.82c.83,5.46,5.2,9.58,8.46,14.89-5.29.11-6.64-4.38-9.35-5.1-4.7-8.91-7.16-17.56-3-26.85C974.39,512.88,975.45,512.83,976.93,513.86Z" transform="translate(-436 -346)"/><path class="b" d="M708.07,612a3.09,3.09,0,0,1,2.83-.88c.3.23.72.39.78.64,2.94,11.18,8.2,21.3,14.1,31.14.18.29-.39.84-1.28,1L716.63,637A58,58,0,0,1,708.07,612Z" transform="translate(-436 -346)"/><path class="b" d="M944.7,594.8c5.49,9.71,11.12,19.24,22.17,23.27-.71,4-3,2.14-4.61,1.81s-2.9-2.49-4.71-1c-2.87-2.41-4.83-5.15-7.82-6.81-1.73-1-2.66-2.89-3.57-4.69-1.26-2.5-1.78-5.29-3.6-7.61C941.37,598.26,941.59,596.28,944.7,594.8Z" transform="translate(-436 -346)"/><path class="b" d="M1048.16,723.06c-5.18,1.29-6.77-3.72-9.81-4-4.91-8.08-9-15.81-6.88-25.53.51-.74,1.61-.64,3-.15C1036.11,704.45,1038.82,715.18,1048.16,723.06Z" transform="translate(-436 -346)"/><path class="b" d="M605.8,653.11a7.55,7.55,0,0,1-3.73-1.7c-.37-3.46,1.2-6.61,2.35-9.55,3-7.69,4.45-15.66,5.66-23.73l2.93,0c-1.44,2.59,1.74,5.66-.12,7.13C611.75,635.63,609.93,644.65,605.8,653.11Z" transform="translate(-436 -346)"/><path class="b" d="M1018.09,642.52c-4.9-1.81-3.75-6.35-5.51-7.87-.78-8.78-1.83-16.87-.12-24.93.79-.9,1.78-.57,3-.5C1018,619.91,1015.84,630.87,1018.09,642.52Z" transform="translate(-436 -346)"/><path class="b" d="M1062.11,613.3c2.46,5.71-1.85,9.15-3.64,13.6-2.09,5.17-7.19,6.64-9.42,10.64-2,.4-2.93-.39-4.2-1.95C1051.13,628.71,1057.54,621.79,1062.11,613.3Z" transform="translate(-436 -346)"/><path class="b" d="M878.8,560.53c4.7.64,2.12,6.09,5.62,6.18,1.17,6.13,3.09,11.52,3.25,17.51-.45.82-1.46,1.28-3.16,1.64C880.74,578.05,879.44,569.67,878.8,560.53Z" transform="translate(-436 -346)"/><path class="b" d="M759.77,581.9a9.91,9.91,0,0,1-1.78-4.71A63.29,63.29,0,0,0,769.5,569c1.94-1.68,3.81-3.54,6.81-4,.07,3.52-3.89,4.75-3.59,7.79C767.69,575.13,765,580.25,759.77,581.9Z" transform="translate(-436 -346)"/><path class="b" d="M562.86,545.53c-1-3.58-.38-7.23-.43-10.85-.13-11.16-.08-22.32-.09-33.48,1.32,1.43.64,3.18.65,4.77.08,9.32,0,18.65,0,28.37,3.55-1,5.82-4,9.17-4.68.31,2,.32,2-3.13,6-1.71,2-3.05,4.35-5.35,5.15C562.68,542.51,563.28,544.09,562.86,545.53Z" transform="translate(-436 -346)"/><path class="b" d="M657.46,525c-.63-2-.43-4.35-2.64-5.19.67-2.86,1.45-5,1.4-7,1.17-2.06,2.6-1.88,4.3-1.41,1,3.06,0,6.26.61,9.5.15,2.2,4.67,3.84,1.09,7.07Z" transform="translate(-436 -346)"/><path class="b" d="M513.16,770.47c.27-6.58,6.25-6.7,8.22-10.17,2.2-.32,4.2-.14,5.69-1.19,1.51.92,2.56,1.69,2.7,3.63C525,766.14,518.93,767.09,513.16,770.47Z" transform="translate(-436 -346)"/><path class="b" d="M831.27,745.74c.14-1.41,1.22-1.34,2.19-1.34q20.07,0,40.13.05c.29,0,.57.27.85.42h-8.37c-1.22,3.48,3.8,4.35,2.46,8.14-4-2.14-6.11-6.6-10.44-8-7.81,0-15.63,0-23.45,0A8.61,8.61,0,0,0,831.27,745.74Z" transform="translate(-436 -346)"/><path class="b" d="M922.11,568.51c.23-3.12-1-4.67-1.91-5.54-.56-3.16,1.25-5.08,1-7.18a4.28,4.28,0,0,1,4.31-.34c1,2.62,0,5.47.57,8.2.45,1.87,2.47,3.06,2.47,5.21C925.66,571.51,924.82,566.36,922.11,568.51Z" transform="translate(-436 -346)"/><path class="b" d="M585.12,766l10.76-4.89a20.73,20.73,0,0,1-7,9.33,50.07,50.07,0,0,1-5.9,3.31,4,4,0,0,1-2.87-2.92C581.66,769.22,584.55,768.71,585.12,766Z" transform="translate(-436 -346)"/><path class="b" d="M486.93,687.84c1.66,2.14.78,4.17,1.07,6.09a14.15,14.15,0,0,0-2.5,4.69L479,700.75c-2.18-.55-2-2.47-3-3.85,2.39-1.36,4.84-1.92,6.17-3.07C484.17,691.74,484.08,688.94,486.93,687.84Z" transform="translate(-436 -346)"/><path class="b" d="M740.05,529.92c-1.46-2-2-4.36-2.74-6.66,2.27,1.61,3.83.11,5-1.49,1.73-2.47,4.2-3.55,6.78-4.61,1.78,1.66.27,2.67-.45,3.87C746.41,524.65,743.85,527.87,740.05,529.92Z" transform="translate(-436 -346)"/><path class="b" d="M807.45,769.22c1.16,1,2.17,1.59,2.24,3.17-3.81,2.81-8.56,3.6-12.82,5.94C796.17,773,798,771.53,807.45,769.22Z" transform="translate(-436 -346)"/><path class="b" d="M794.65,622.71c-1.52-2.62-1.79-5.05.14-7.43a4.15,4.15,0,0,1,4,.46c.3,2.39,0,5.15,2.41,7.25C798.7,624.64,796.8,624,794.65,622.71Z" transform="translate(-436 -346)"/><path class="b" d="M570.58,598.66c-3.14.73-3.84-2.17-5.75-2.84-.19-5.55.6-6.59,4.91-6.26C570.54,592.54,569.36,595.7,570.58,598.66Z" transform="translate(-436 -346)"/><path class="b" d="M754.92,684a5.53,5.53,0,0,1-1,4c-2.36,2-4.74,4-8,3.79-1-.85-1-1.79-.69-3.06C748.17,686.88,751.07,684.5,754.92,684Z" transform="translate(-436 -346)"/><path class="b" d="M927.14,728.24a12.92,12.92,0,0,1,0,5.57c-1.5.54-1.92,2.23-3.13,3-2.43-.27-2.43-.27-4.91-1.71C922,733,923.52,729.47,927.14,728.24Z" transform="translate(-436 -346)"/><path class="b" d="M755.59,682.23a1.26,1.26,0,0,1-.64,1.65C754.94,683.25,754.84,682.57,755.59,682.23Z" transform="translate(-436 -346)"/><path class="b" d="M520,629c.18.14.35.29.09.07L520,629Z" transform="translate(-436 -346)"/><path class="b" d="M886.65,441.45,883,443.91a4.9,4.9,0,0,1-3.94-1.9,34.36,34.36,0,0,0,5.66-9.93C888.53,434.32,888.7,435.23,886.65,441.45Z" transform="translate(-436 -346)"/><path class="b" d="M1105.57,487.34a5.2,5.2,0,0,1,4.15.27c-2.6,8.41-3.63,17.24-5.12,26.18C1099.83,510.14,1100.23,501.46,1105.57,487.34Z" transform="translate(-436 -346)"/><path class="b" d="M1122.54,611.26c2.08,2.67,1.15,4.69,1.41,6.68a13.48,13.48,0,0,0-3.31,4.58c-1.92,1.25-4,1.93-5.24,3.35a4.37,4.37,0,0,1-3.14-2.5A120.6,120.6,0,0,0,1122.54,611.26Z" transform="translate(-436 -346)"/><path class="b" d="M700.22,415.83c-5.37,2-5.93-2.32-7.92-4.33-.08-2.05,2.05-2.62,2.16-4.13,2-.6,3.14.35,4.4,1.47C699,411,698.82,413.31,700.22,415.83Z" transform="translate(-436 -346)"/><path class="d" d="M698.6,574.46c4.49-12.82,8.85-25.24,13.56-38.69,4.73,13.5,9.08,25.89,13.56,38.69Z" transform="translate(-436 -346)"/><path class="d" d="M842.86,713.07c2.8-10,6.62-19.59,10.4-30.36,4.52,13.26,8.67,25.4,12.81,37.54-6.09,1.71-12.24.36-18.31.75C846,718.17,845.11,715.17,842.86,713.07Z" transform="translate(-436 -346)"/><path class="b" d="M842.86,713.07c2.25,2.1,3.11,5.1,4.9,7.93,6.07-.39,12.22,1,18.31-.75-1,1.53-1,1.58-2.22,1.58-7.89,0-15.77,0-23.86,0C841,718.74,840.88,715.58,842.86,713.07Z" transform="translate(-436 -346)"/><path class="d" d="M957.88,701.9V672.81c5.54-.37,10.84-.55,16,.45,6.76,1.31,10.4,6.29,10.46,13.77s-3.32,12.19-10.16,14C969,702.36,963.69,701.76,957.88,701.9Z" transform="translate(-436 -346)"/></svg>